G04 #@! TF.GenerationSoftware,KiCad,Pcbnew,7.0.9*
G04 #@! TF.CreationDate,2023-12-23T22:38:02-05:00*
G04 #@! TF.ProjectId,track_sensor_board,74726163-6b5f-4736-956e-736f725f626f,rev?*
G04 #@! TF.SameCoordinates,Original*
G04 #@! TF.FileFunction,Legend,Top*
G04 #@! TF.FilePolarity,Positive*
%FSLAX46Y46*%
G04 Gerber Fmt 4.6, Leading zero omitted, Abs format (unit mm)*
G04 Created by KiCad (PCBNEW 7.0.9) date 2023-12-23 22:38:02*
%MOMM*%
%LPD*%
G01*
G04 APERTURE LIST*
%ADD10C,0.500000*%
%ADD11C,0.150000*%
%ADD12C,0.200000*%
%ADD13C,0.375000*%
%ADD14C,0.300000*%
%ADD15C,0.153000*%
%ADD16C,1.000000*%
%ADD17C,0.120000*%
%ADD18C,2.540000*%
%ADD19C,3.000000*%
%ADD20C,2.780000*%
%ADD21C,4.500000*%
%ADD22R,1.600000X1.600000*%
%ADD23O,1.600000X1.600000*%
%ADD24R,2.600000X2.600000*%
%ADD25C,2.600000*%
%ADD26C,1.600000*%
%ADD27R,2.500000X1.500000*%
%ADD28O,2.500000X1.500000*%
%ADD29R,1.800000X4.400000*%
%ADD30O,1.800000X4.000000*%
%ADD31O,4.000000X1.800000*%
G04 APERTURE END LIST*
D10*
X119218718Y-106165759D02*
X109058718Y-106165759D01*
X173355000Y-106045000D02*
X173355000Y-99695000D01*
X110490000Y-120650000D02*
X104140000Y-120650000D01*
D11*
X171450000Y-63500000D02*
X193040000Y-63500000D01*
X193040000Y-71755000D01*
X171450000Y-71755000D01*
X171450000Y-63500000D01*
G36*
X171450000Y-63500000D02*
G01*
X193040000Y-63500000D01*
X193040000Y-71755000D01*
X171450000Y-71755000D01*
X171450000Y-63500000D01*
G37*
D12*
X116190452Y-103531277D02*
X117323575Y-103531277D01*
D10*
X104140000Y-110490000D02*
X110490000Y-110490000D01*
D11*
X125730000Y-63500000D02*
X147320000Y-63500000D01*
X147320000Y-71755000D01*
X125730000Y-71755000D01*
X125730000Y-63500000D01*
G36*
X125730000Y-63500000D02*
G01*
X147320000Y-63500000D01*
X147320000Y-71755000D01*
X125730000Y-71755000D01*
X125730000Y-63500000D01*
G37*
D10*
X173355000Y-106045000D02*
X188595000Y-106045000D01*
D11*
X102870000Y-63500000D02*
X124460000Y-63500000D01*
X124460000Y-71755000D01*
X102870000Y-71755000D01*
X102870000Y-63500000D01*
G36*
X102870000Y-63500000D02*
G01*
X124460000Y-63500000D01*
X124460000Y-71755000D01*
X102870000Y-71755000D01*
X102870000Y-63500000D01*
G37*
D12*
X116748766Y-104090060D02*
X116748766Y-102956937D01*
D11*
X171450000Y-124698395D02*
X192772149Y-124698395D01*
X192772149Y-132715000D01*
X171450000Y-132715000D01*
X171450000Y-124698395D01*
G36*
X171450000Y-124698395D02*
G01*
X192772149Y-124698395D01*
X192772149Y-132715000D01*
X171450000Y-132715000D01*
X171450000Y-124698395D01*
G37*
D10*
X110490000Y-110490000D02*
X110490000Y-120650000D01*
X184150000Y-120650000D02*
X184150000Y-110490000D01*
D11*
X102870000Y-124698395D02*
X124192149Y-124698395D01*
X124192149Y-132715000D01*
X102870000Y-132715000D01*
X102870000Y-124698395D01*
G36*
X102870000Y-124698395D02*
G01*
X124192149Y-124698395D01*
X124192149Y-132715000D01*
X102870000Y-132715000D01*
X102870000Y-124698395D01*
G37*
D10*
X173355000Y-99695000D02*
X188595000Y-99695000D01*
X109058718Y-98500759D02*
X119218718Y-98500759D01*
X190500000Y-120650000D02*
X184150000Y-120650000D01*
X184150000Y-110490000D02*
X190500000Y-110490000D01*
D12*
X110182204Y-103523498D02*
X111315327Y-103523498D01*
D11*
X125730000Y-124698395D02*
X147052149Y-124698395D01*
X147052149Y-132715000D01*
X125730000Y-132715000D01*
X125730000Y-124698395D01*
G36*
X125730000Y-124698395D02*
G01*
X147052149Y-124698395D01*
X147052149Y-132715000D01*
X125730000Y-132715000D01*
X125730000Y-124698395D01*
G37*
X148590000Y-124698395D02*
X169912149Y-124698395D01*
X169912149Y-132715000D01*
X148590000Y-132715000D01*
X148590000Y-124698395D01*
G36*
X148590000Y-124698395D02*
G01*
X169912149Y-124698395D01*
X169912149Y-132715000D01*
X148590000Y-132715000D01*
X148590000Y-124698395D01*
G37*
X148590000Y-63500000D02*
X170180000Y-63500000D01*
X170180000Y-71755000D01*
X148590000Y-71755000D01*
X148590000Y-63500000D01*
G36*
X148590000Y-63500000D02*
G01*
X170180000Y-63500000D01*
X170180000Y-71755000D01*
X148590000Y-71755000D01*
X148590000Y-63500000D01*
G37*
D10*
X119218718Y-98500759D02*
X119218718Y-106165759D01*
X182097518Y-60594238D02*
X181145137Y-60594238D01*
X181145137Y-60594238D02*
X181049899Y-61546619D01*
X181049899Y-61546619D02*
X181145137Y-61451380D01*
X181145137Y-61451380D02*
X181335613Y-61356142D01*
X181335613Y-61356142D02*
X181811804Y-61356142D01*
X181811804Y-61356142D02*
X182002280Y-61451380D01*
X182002280Y-61451380D02*
X182097518Y-61546619D01*
X182097518Y-61546619D02*
X182192756Y-61737095D01*
X182192756Y-61737095D02*
X182192756Y-62213285D01*
X182192756Y-62213285D02*
X182097518Y-62403761D01*
X182097518Y-62403761D02*
X182002280Y-62499000D01*
X182002280Y-62499000D02*
X181811804Y-62594238D01*
X181811804Y-62594238D02*
X181335613Y-62594238D01*
X181335613Y-62594238D02*
X181145137Y-62499000D01*
X181145137Y-62499000D02*
X181049899Y-62403761D01*
X182954661Y-62022809D02*
X183907042Y-62022809D01*
X182764185Y-62594238D02*
X183430851Y-60594238D01*
X183430851Y-60594238D02*
X184097518Y-62594238D01*
D13*
X152152418Y-60994962D02*
X152009561Y-60923533D01*
X152009561Y-60923533D02*
X151795275Y-60923533D01*
X151795275Y-60923533D02*
X151580989Y-60994962D01*
X151580989Y-60994962D02*
X151438132Y-61137819D01*
X151438132Y-61137819D02*
X151366703Y-61280676D01*
X151366703Y-61280676D02*
X151295275Y-61566390D01*
X151295275Y-61566390D02*
X151295275Y-61780676D01*
X151295275Y-61780676D02*
X151366703Y-62066390D01*
X151366703Y-62066390D02*
X151438132Y-62209247D01*
X151438132Y-62209247D02*
X151580989Y-62352105D01*
X151580989Y-62352105D02*
X151795275Y-62423533D01*
X151795275Y-62423533D02*
X151938132Y-62423533D01*
X151938132Y-62423533D02*
X152152418Y-62352105D01*
X152152418Y-62352105D02*
X152223846Y-62280676D01*
X152223846Y-62280676D02*
X152223846Y-61780676D01*
X152223846Y-61780676D02*
X151938132Y-61780676D01*
X152866703Y-62423533D02*
X152866703Y-60923533D01*
X152866703Y-60923533D02*
X153723846Y-62423533D01*
X153723846Y-62423533D02*
X153723846Y-60923533D01*
X154438132Y-62423533D02*
X154438132Y-60923533D01*
X154438132Y-60923533D02*
X154795275Y-60923533D01*
X154795275Y-60923533D02*
X155009561Y-60994962D01*
X155009561Y-60994962D02*
X155152418Y-61137819D01*
X155152418Y-61137819D02*
X155223847Y-61280676D01*
X155223847Y-61280676D02*
X155295275Y-61566390D01*
X155295275Y-61566390D02*
X155295275Y-61780676D01*
X155295275Y-61780676D02*
X155223847Y-62066390D01*
X155223847Y-62066390D02*
X155152418Y-62209247D01*
X155152418Y-62209247D02*
X155009561Y-62352105D01*
X155009561Y-62352105D02*
X154795275Y-62423533D01*
X154795275Y-62423533D02*
X154438132Y-62423533D01*
D14*
X186817143Y-112279757D02*
X186674286Y-112208328D01*
X186674286Y-112208328D02*
X186460000Y-112208328D01*
X186460000Y-112208328D02*
X186245714Y-112279757D01*
X186245714Y-112279757D02*
X186102857Y-112422614D01*
X186102857Y-112422614D02*
X186031428Y-112565471D01*
X186031428Y-112565471D02*
X185960000Y-112851185D01*
X185960000Y-112851185D02*
X185960000Y-113065471D01*
X185960000Y-113065471D02*
X186031428Y-113351185D01*
X186031428Y-113351185D02*
X186102857Y-113494042D01*
X186102857Y-113494042D02*
X186245714Y-113636900D01*
X186245714Y-113636900D02*
X186460000Y-113708328D01*
X186460000Y-113708328D02*
X186602857Y-113708328D01*
X186602857Y-113708328D02*
X186817143Y-113636900D01*
X186817143Y-113636900D02*
X186888571Y-113565471D01*
X186888571Y-113565471D02*
X186888571Y-113065471D01*
X186888571Y-113065471D02*
X186602857Y-113065471D01*
X187531428Y-113708328D02*
X187531428Y-112208328D01*
X187531428Y-112208328D02*
X188388571Y-113708328D01*
X188388571Y-113708328D02*
X188388571Y-112208328D01*
X189102857Y-113708328D02*
X189102857Y-112208328D01*
X189102857Y-112208328D02*
X189460000Y-112208328D01*
X189460000Y-112208328D02*
X189674286Y-112279757D01*
X189674286Y-112279757D02*
X189817143Y-112422614D01*
X189817143Y-112422614D02*
X189888572Y-112565471D01*
X189888572Y-112565471D02*
X189960000Y-112851185D01*
X189960000Y-112851185D02*
X189960000Y-113065471D01*
X189960000Y-113065471D02*
X189888572Y-113351185D01*
X189888572Y-113351185D02*
X189817143Y-113494042D01*
X189817143Y-113494042D02*
X189674286Y-113636900D01*
X189674286Y-113636900D02*
X189460000Y-113708328D01*
X189460000Y-113708328D02*
X189102857Y-113708328D01*
D13*
X175012418Y-60994962D02*
X174869561Y-60923533D01*
X174869561Y-60923533D02*
X174655275Y-60923533D01*
X174655275Y-60923533D02*
X174440989Y-60994962D01*
X174440989Y-60994962D02*
X174298132Y-61137819D01*
X174298132Y-61137819D02*
X174226703Y-61280676D01*
X174226703Y-61280676D02*
X174155275Y-61566390D01*
X174155275Y-61566390D02*
X174155275Y-61780676D01*
X174155275Y-61780676D02*
X174226703Y-62066390D01*
X174226703Y-62066390D02*
X174298132Y-62209247D01*
X174298132Y-62209247D02*
X174440989Y-62352105D01*
X174440989Y-62352105D02*
X174655275Y-62423533D01*
X174655275Y-62423533D02*
X174798132Y-62423533D01*
X174798132Y-62423533D02*
X175012418Y-62352105D01*
X175012418Y-62352105D02*
X175083846Y-62280676D01*
X175083846Y-62280676D02*
X175083846Y-61780676D01*
X175083846Y-61780676D02*
X174798132Y-61780676D01*
X175726703Y-62423533D02*
X175726703Y-60923533D01*
X175726703Y-60923533D02*
X176583846Y-62423533D01*
X176583846Y-62423533D02*
X176583846Y-60923533D01*
X177298132Y-62423533D02*
X177298132Y-60923533D01*
X177298132Y-60923533D02*
X177655275Y-60923533D01*
X177655275Y-60923533D02*
X177869561Y-60994962D01*
X177869561Y-60994962D02*
X178012418Y-61137819D01*
X178012418Y-61137819D02*
X178083847Y-61280676D01*
X178083847Y-61280676D02*
X178155275Y-61566390D01*
X178155275Y-61566390D02*
X178155275Y-61780676D01*
X178155275Y-61780676D02*
X178083847Y-62066390D01*
X178083847Y-62066390D02*
X178012418Y-62209247D01*
X178012418Y-62209247D02*
X177869561Y-62352105D01*
X177869561Y-62352105D02*
X177655275Y-62423533D01*
X177655275Y-62423533D02*
X177298132Y-62423533D01*
D10*
X157826810Y-121792633D02*
X159064905Y-121792633D01*
X159064905Y-121792633D02*
X158398238Y-122554537D01*
X158398238Y-122554537D02*
X158683953Y-122554537D01*
X158683953Y-122554537D02*
X158874429Y-122649775D01*
X158874429Y-122649775D02*
X158969667Y-122745014D01*
X158969667Y-122745014D02*
X159064905Y-122935490D01*
X159064905Y-122935490D02*
X159064905Y-123411680D01*
X159064905Y-123411680D02*
X158969667Y-123602156D01*
X158969667Y-123602156D02*
X158874429Y-123697395D01*
X158874429Y-123697395D02*
X158683953Y-123792633D01*
X158683953Y-123792633D02*
X158112524Y-123792633D01*
X158112524Y-123792633D02*
X157922048Y-123697395D01*
X157922048Y-123697395D02*
X157826810Y-123602156D01*
X159826810Y-123221204D02*
X160779191Y-123221204D01*
X159636334Y-123792633D02*
X160303000Y-121792633D01*
X160303000Y-121792633D02*
X160969667Y-123792633D01*
D13*
X151884567Y-122193357D02*
X151741710Y-122121928D01*
X151741710Y-122121928D02*
X151527424Y-122121928D01*
X151527424Y-122121928D02*
X151313138Y-122193357D01*
X151313138Y-122193357D02*
X151170281Y-122336214D01*
X151170281Y-122336214D02*
X151098852Y-122479071D01*
X151098852Y-122479071D02*
X151027424Y-122764785D01*
X151027424Y-122764785D02*
X151027424Y-122979071D01*
X151027424Y-122979071D02*
X151098852Y-123264785D01*
X151098852Y-123264785D02*
X151170281Y-123407642D01*
X151170281Y-123407642D02*
X151313138Y-123550500D01*
X151313138Y-123550500D02*
X151527424Y-123621928D01*
X151527424Y-123621928D02*
X151670281Y-123621928D01*
X151670281Y-123621928D02*
X151884567Y-123550500D01*
X151884567Y-123550500D02*
X151955995Y-123479071D01*
X151955995Y-123479071D02*
X151955995Y-122979071D01*
X151955995Y-122979071D02*
X151670281Y-122979071D01*
X152598852Y-123621928D02*
X152598852Y-122121928D01*
X152598852Y-122121928D02*
X153455995Y-123621928D01*
X153455995Y-123621928D02*
X153455995Y-122121928D01*
X154170281Y-123621928D02*
X154170281Y-122121928D01*
X154170281Y-122121928D02*
X154527424Y-122121928D01*
X154527424Y-122121928D02*
X154741710Y-122193357D01*
X154741710Y-122193357D02*
X154884567Y-122336214D01*
X154884567Y-122336214D02*
X154955996Y-122479071D01*
X154955996Y-122479071D02*
X155027424Y-122764785D01*
X155027424Y-122764785D02*
X155027424Y-122979071D01*
X155027424Y-122979071D02*
X154955996Y-123264785D01*
X154955996Y-123264785D02*
X154884567Y-123407642D01*
X154884567Y-123407642D02*
X154741710Y-123550500D01*
X154741710Y-123550500D02*
X154527424Y-123621928D01*
X154527424Y-123621928D02*
X154170281Y-123621928D01*
D10*
X119059905Y-123792633D02*
X117917048Y-123792633D01*
X118488476Y-123792633D02*
X118488476Y-121792633D01*
X118488476Y-121792633D02*
X118298000Y-122078347D01*
X118298000Y-122078347D02*
X118107524Y-122268823D01*
X118107524Y-122268823D02*
X117917048Y-122364061D01*
X120583715Y-122745014D02*
X120869429Y-122840252D01*
X120869429Y-122840252D02*
X120964667Y-122935490D01*
X120964667Y-122935490D02*
X121059905Y-123125966D01*
X121059905Y-123125966D02*
X121059905Y-123411680D01*
X121059905Y-123411680D02*
X120964667Y-123602156D01*
X120964667Y-123602156D02*
X120869429Y-123697395D01*
X120869429Y-123697395D02*
X120678953Y-123792633D01*
X120678953Y-123792633D02*
X119917048Y-123792633D01*
X119917048Y-123792633D02*
X119917048Y-121792633D01*
X119917048Y-121792633D02*
X120583715Y-121792633D01*
X120583715Y-121792633D02*
X120774191Y-121887871D01*
X120774191Y-121887871D02*
X120869429Y-121983109D01*
X120869429Y-121983109D02*
X120964667Y-122173585D01*
X120964667Y-122173585D02*
X120964667Y-122364061D01*
X120964667Y-122364061D02*
X120869429Y-122554537D01*
X120869429Y-122554537D02*
X120774191Y-122649775D01*
X120774191Y-122649775D02*
X120583715Y-122745014D01*
X120583715Y-122745014D02*
X119917048Y-122745014D01*
D14*
X104037143Y-113136900D02*
X105180001Y-113136900D01*
X104608572Y-113708328D02*
X104608572Y-112565471D01*
X106680001Y-113708328D02*
X105822858Y-113708328D01*
X106251429Y-113708328D02*
X106251429Y-112208328D01*
X106251429Y-112208328D02*
X106108572Y-112422614D01*
X106108572Y-112422614D02*
X105965715Y-112565471D01*
X105965715Y-112565471D02*
X105822858Y-112636900D01*
X107251429Y-112351185D02*
X107322857Y-112279757D01*
X107322857Y-112279757D02*
X107465715Y-112208328D01*
X107465715Y-112208328D02*
X107822857Y-112208328D01*
X107822857Y-112208328D02*
X107965715Y-112279757D01*
X107965715Y-112279757D02*
X108037143Y-112351185D01*
X108037143Y-112351185D02*
X108108572Y-112494042D01*
X108108572Y-112494042D02*
X108108572Y-112636900D01*
X108108572Y-112636900D02*
X108037143Y-112851185D01*
X108037143Y-112851185D02*
X107180000Y-113708328D01*
X107180000Y-113708328D02*
X108108572Y-113708328D01*
X108537143Y-112208328D02*
X109037143Y-113708328D01*
X109037143Y-113708328D02*
X109537143Y-112208328D01*
D13*
X174744567Y-122193357D02*
X174601710Y-122121928D01*
X174601710Y-122121928D02*
X174387424Y-122121928D01*
X174387424Y-122121928D02*
X174173138Y-122193357D01*
X174173138Y-122193357D02*
X174030281Y-122336214D01*
X174030281Y-122336214D02*
X173958852Y-122479071D01*
X173958852Y-122479071D02*
X173887424Y-122764785D01*
X173887424Y-122764785D02*
X173887424Y-122979071D01*
X173887424Y-122979071D02*
X173958852Y-123264785D01*
X173958852Y-123264785D02*
X174030281Y-123407642D01*
X174030281Y-123407642D02*
X174173138Y-123550500D01*
X174173138Y-123550500D02*
X174387424Y-123621928D01*
X174387424Y-123621928D02*
X174530281Y-123621928D01*
X174530281Y-123621928D02*
X174744567Y-123550500D01*
X174744567Y-123550500D02*
X174815995Y-123479071D01*
X174815995Y-123479071D02*
X174815995Y-122979071D01*
X174815995Y-122979071D02*
X174530281Y-122979071D01*
X175458852Y-123621928D02*
X175458852Y-122121928D01*
X175458852Y-122121928D02*
X176315995Y-123621928D01*
X176315995Y-123621928D02*
X176315995Y-122121928D01*
X177030281Y-123621928D02*
X177030281Y-122121928D01*
X177030281Y-122121928D02*
X177387424Y-122121928D01*
X177387424Y-122121928D02*
X177601710Y-122193357D01*
X177601710Y-122193357D02*
X177744567Y-122336214D01*
X177744567Y-122336214D02*
X177815996Y-122479071D01*
X177815996Y-122479071D02*
X177887424Y-122764785D01*
X177887424Y-122764785D02*
X177887424Y-122979071D01*
X177887424Y-122979071D02*
X177815996Y-123264785D01*
X177815996Y-123264785D02*
X177744567Y-123407642D01*
X177744567Y-123407642D02*
X177601710Y-123550500D01*
X177601710Y-123550500D02*
X177387424Y-123621928D01*
X177387424Y-123621928D02*
X177030281Y-123621928D01*
D10*
X140777048Y-121983109D02*
X140872286Y-121887871D01*
X140872286Y-121887871D02*
X141062762Y-121792633D01*
X141062762Y-121792633D02*
X141538953Y-121792633D01*
X141538953Y-121792633D02*
X141729429Y-121887871D01*
X141729429Y-121887871D02*
X141824667Y-121983109D01*
X141824667Y-121983109D02*
X141919905Y-122173585D01*
X141919905Y-122173585D02*
X141919905Y-122364061D01*
X141919905Y-122364061D02*
X141824667Y-122649775D01*
X141824667Y-122649775D02*
X140681810Y-123792633D01*
X140681810Y-123792633D02*
X141919905Y-123792633D01*
X143443715Y-122745014D02*
X143729429Y-122840252D01*
X143729429Y-122840252D02*
X143824667Y-122935490D01*
X143824667Y-122935490D02*
X143919905Y-123125966D01*
X143919905Y-123125966D02*
X143919905Y-123411680D01*
X143919905Y-123411680D02*
X143824667Y-123602156D01*
X143824667Y-123602156D02*
X143729429Y-123697395D01*
X143729429Y-123697395D02*
X143538953Y-123792633D01*
X143538953Y-123792633D02*
X142777048Y-123792633D01*
X142777048Y-123792633D02*
X142777048Y-121792633D01*
X142777048Y-121792633D02*
X143443715Y-121792633D01*
X143443715Y-121792633D02*
X143634191Y-121887871D01*
X143634191Y-121887871D02*
X143729429Y-121983109D01*
X143729429Y-121983109D02*
X143824667Y-122173585D01*
X143824667Y-122173585D02*
X143824667Y-122364061D01*
X143824667Y-122364061D02*
X143729429Y-122554537D01*
X143729429Y-122554537D02*
X143634191Y-122649775D01*
X143634191Y-122649775D02*
X143443715Y-122745014D01*
X143443715Y-122745014D02*
X142777048Y-122745014D01*
X113344905Y-123792633D02*
X112202048Y-123792633D01*
X112773476Y-123792633D02*
X112773476Y-121792633D01*
X112773476Y-121792633D02*
X112583000Y-122078347D01*
X112583000Y-122078347D02*
X112392524Y-122268823D01*
X112392524Y-122268823D02*
X112202048Y-122364061D01*
X114106810Y-123221204D02*
X115059191Y-123221204D01*
X113916334Y-123792633D02*
X114583000Y-121792633D01*
X114583000Y-121792633D02*
X115249667Y-123792633D01*
D13*
X129024567Y-122193357D02*
X128881710Y-122121928D01*
X128881710Y-122121928D02*
X128667424Y-122121928D01*
X128667424Y-122121928D02*
X128453138Y-122193357D01*
X128453138Y-122193357D02*
X128310281Y-122336214D01*
X128310281Y-122336214D02*
X128238852Y-122479071D01*
X128238852Y-122479071D02*
X128167424Y-122764785D01*
X128167424Y-122764785D02*
X128167424Y-122979071D01*
X128167424Y-122979071D02*
X128238852Y-123264785D01*
X128238852Y-123264785D02*
X128310281Y-123407642D01*
X128310281Y-123407642D02*
X128453138Y-123550500D01*
X128453138Y-123550500D02*
X128667424Y-123621928D01*
X128667424Y-123621928D02*
X128810281Y-123621928D01*
X128810281Y-123621928D02*
X129024567Y-123550500D01*
X129024567Y-123550500D02*
X129095995Y-123479071D01*
X129095995Y-123479071D02*
X129095995Y-122979071D01*
X129095995Y-122979071D02*
X128810281Y-122979071D01*
X129738852Y-123621928D02*
X129738852Y-122121928D01*
X129738852Y-122121928D02*
X130595995Y-123621928D01*
X130595995Y-123621928D02*
X130595995Y-122121928D01*
X131310281Y-123621928D02*
X131310281Y-122121928D01*
X131310281Y-122121928D02*
X131667424Y-122121928D01*
X131667424Y-122121928D02*
X131881710Y-122193357D01*
X131881710Y-122193357D02*
X132024567Y-122336214D01*
X132024567Y-122336214D02*
X132095996Y-122479071D01*
X132095996Y-122479071D02*
X132167424Y-122764785D01*
X132167424Y-122764785D02*
X132167424Y-122979071D01*
X132167424Y-122979071D02*
X132095996Y-123264785D01*
X132095996Y-123264785D02*
X132024567Y-123407642D01*
X132024567Y-123407642D02*
X131881710Y-123550500D01*
X131881710Y-123550500D02*
X131667424Y-123621928D01*
X131667424Y-123621928D02*
X131310281Y-123621928D01*
D14*
X110425898Y-101088210D02*
X111568756Y-101088210D01*
X110997327Y-101659638D02*
X110997327Y-100516781D01*
X113068756Y-101659638D02*
X112211613Y-101659638D01*
X112640184Y-101659638D02*
X112640184Y-100159638D01*
X112640184Y-100159638D02*
X112497327Y-100373924D01*
X112497327Y-100373924D02*
X112354470Y-100516781D01*
X112354470Y-100516781D02*
X112211613Y-100588210D01*
X113640184Y-100302495D02*
X113711612Y-100231067D01*
X113711612Y-100231067D02*
X113854470Y-100159638D01*
X113854470Y-100159638D02*
X114211612Y-100159638D01*
X114211612Y-100159638D02*
X114354470Y-100231067D01*
X114354470Y-100231067D02*
X114425898Y-100302495D01*
X114425898Y-100302495D02*
X114497327Y-100445352D01*
X114497327Y-100445352D02*
X114497327Y-100588210D01*
X114497327Y-100588210D02*
X114425898Y-100802495D01*
X114425898Y-100802495D02*
X113568755Y-101659638D01*
X113568755Y-101659638D02*
X114497327Y-101659638D01*
X114925898Y-100159638D02*
X115425898Y-101659638D01*
X115425898Y-101659638D02*
X115925898Y-100159638D01*
D12*
X94225158Y-133281993D02*
X94272777Y-133139136D01*
X94272777Y-133139136D02*
X94320396Y-133091517D01*
X94320396Y-133091517D02*
X94415634Y-133043898D01*
X94415634Y-133043898D02*
X94558491Y-133043898D01*
X94558491Y-133043898D02*
X94653729Y-133091517D01*
X94653729Y-133091517D02*
X94701349Y-133139136D01*
X94701349Y-133139136D02*
X94748968Y-133234374D01*
X94748968Y-133234374D02*
X94748968Y-133615326D01*
X94748968Y-133615326D02*
X93748968Y-133615326D01*
X93748968Y-133615326D02*
X93748968Y-133281993D01*
X93748968Y-133281993D02*
X93796587Y-133186755D01*
X93796587Y-133186755D02*
X93844206Y-133139136D01*
X93844206Y-133139136D02*
X93939444Y-133091517D01*
X93939444Y-133091517D02*
X94034682Y-133091517D01*
X94034682Y-133091517D02*
X94129920Y-133139136D01*
X94129920Y-133139136D02*
X94177539Y-133186755D01*
X94177539Y-133186755D02*
X94225158Y-133281993D01*
X94225158Y-133281993D02*
X94225158Y-133615326D01*
X94225158Y-132615326D02*
X94225158Y-132281993D01*
X94748968Y-132139136D02*
X94748968Y-132615326D01*
X94748968Y-132615326D02*
X93748968Y-132615326D01*
X93748968Y-132615326D02*
X93748968Y-132139136D01*
X94463253Y-131758183D02*
X94463253Y-131281993D01*
X94748968Y-131853421D02*
X93748968Y-131520088D01*
X93748968Y-131520088D02*
X94748968Y-131186755D01*
X93748968Y-130996278D02*
X94748968Y-130662945D01*
X94748968Y-130662945D02*
X93748968Y-130329612D01*
X94225158Y-129996278D02*
X94225158Y-129662945D01*
X94748968Y-129520088D02*
X94748968Y-129996278D01*
X94748968Y-129996278D02*
X93748968Y-129996278D01*
X93748968Y-129996278D02*
X93748968Y-129520088D01*
X94748968Y-128520088D02*
X94272777Y-128853421D01*
X94748968Y-129091516D02*
X93748968Y-129091516D01*
X93748968Y-129091516D02*
X93748968Y-128710564D01*
X93748968Y-128710564D02*
X93796587Y-128615326D01*
X93796587Y-128615326D02*
X93844206Y-128567707D01*
X93844206Y-128567707D02*
X93939444Y-128520088D01*
X93939444Y-128520088D02*
X94082301Y-128520088D01*
X94082301Y-128520088D02*
X94177539Y-128567707D01*
X94177539Y-128567707D02*
X94225158Y-128615326D01*
X94225158Y-128615326D02*
X94272777Y-128710564D01*
X94272777Y-128710564D02*
X94272777Y-129091516D01*
X94748968Y-126758183D02*
X94272777Y-127091516D01*
X94748968Y-127329611D02*
X93748968Y-127329611D01*
X93748968Y-127329611D02*
X93748968Y-126948659D01*
X93748968Y-126948659D02*
X93796587Y-126853421D01*
X93796587Y-126853421D02*
X93844206Y-126805802D01*
X93844206Y-126805802D02*
X93939444Y-126758183D01*
X93939444Y-126758183D02*
X94082301Y-126758183D01*
X94082301Y-126758183D02*
X94177539Y-126805802D01*
X94177539Y-126805802D02*
X94225158Y-126853421D01*
X94225158Y-126853421D02*
X94272777Y-126948659D01*
X94272777Y-126948659D02*
X94272777Y-127329611D01*
X93748968Y-126329611D02*
X94558491Y-126329611D01*
X94558491Y-126329611D02*
X94653729Y-126281992D01*
X94653729Y-126281992D02*
X94701349Y-126234373D01*
X94701349Y-126234373D02*
X94748968Y-126139135D01*
X94748968Y-126139135D02*
X94748968Y-125948659D01*
X94748968Y-125948659D02*
X94701349Y-125853421D01*
X94701349Y-125853421D02*
X94653729Y-125805802D01*
X94653729Y-125805802D02*
X94558491Y-125758183D01*
X94558491Y-125758183D02*
X93748968Y-125758183D01*
X94748968Y-125281992D02*
X93748968Y-125281992D01*
X93748968Y-125281992D02*
X94748968Y-124710564D01*
X94748968Y-124710564D02*
X93748968Y-124710564D01*
X96311349Y-133662945D02*
X96358968Y-133520088D01*
X96358968Y-133520088D02*
X96358968Y-133281993D01*
X96358968Y-133281993D02*
X96311349Y-133186755D01*
X96311349Y-133186755D02*
X96263729Y-133139136D01*
X96263729Y-133139136D02*
X96168491Y-133091517D01*
X96168491Y-133091517D02*
X96073253Y-133091517D01*
X96073253Y-133091517D02*
X95978015Y-133139136D01*
X95978015Y-133139136D02*
X95930396Y-133186755D01*
X95930396Y-133186755D02*
X95882777Y-133281993D01*
X95882777Y-133281993D02*
X95835158Y-133472469D01*
X95835158Y-133472469D02*
X95787539Y-133567707D01*
X95787539Y-133567707D02*
X95739920Y-133615326D01*
X95739920Y-133615326D02*
X95644682Y-133662945D01*
X95644682Y-133662945D02*
X95549444Y-133662945D01*
X95549444Y-133662945D02*
X95454206Y-133615326D01*
X95454206Y-133615326D02*
X95406587Y-133567707D01*
X95406587Y-133567707D02*
X95358968Y-133472469D01*
X95358968Y-133472469D02*
X95358968Y-133234374D01*
X95358968Y-133234374D02*
X95406587Y-133091517D01*
X95835158Y-132662945D02*
X95835158Y-132329612D01*
X96358968Y-132186755D02*
X96358968Y-132662945D01*
X96358968Y-132662945D02*
X95358968Y-132662945D01*
X95358968Y-132662945D02*
X95358968Y-132186755D01*
X96358968Y-131758183D02*
X95358968Y-131758183D01*
X95358968Y-131758183D02*
X96358968Y-131186755D01*
X96358968Y-131186755D02*
X95358968Y-131186755D01*
X96311349Y-130758183D02*
X96358968Y-130615326D01*
X96358968Y-130615326D02*
X96358968Y-130377231D01*
X96358968Y-130377231D02*
X96311349Y-130281993D01*
X96311349Y-130281993D02*
X96263729Y-130234374D01*
X96263729Y-130234374D02*
X96168491Y-130186755D01*
X96168491Y-130186755D02*
X96073253Y-130186755D01*
X96073253Y-130186755D02*
X95978015Y-130234374D01*
X95978015Y-130234374D02*
X95930396Y-130281993D01*
X95930396Y-130281993D02*
X95882777Y-130377231D01*
X95882777Y-130377231D02*
X95835158Y-130567707D01*
X95835158Y-130567707D02*
X95787539Y-130662945D01*
X95787539Y-130662945D02*
X95739920Y-130710564D01*
X95739920Y-130710564D02*
X95644682Y-130758183D01*
X95644682Y-130758183D02*
X95549444Y-130758183D01*
X95549444Y-130758183D02*
X95454206Y-130710564D01*
X95454206Y-130710564D02*
X95406587Y-130662945D01*
X95406587Y-130662945D02*
X95358968Y-130567707D01*
X95358968Y-130567707D02*
X95358968Y-130329612D01*
X95358968Y-130329612D02*
X95406587Y-130186755D01*
X95358968Y-129567707D02*
X95358968Y-129377231D01*
X95358968Y-129377231D02*
X95406587Y-129281993D01*
X95406587Y-129281993D02*
X95501825Y-129186755D01*
X95501825Y-129186755D02*
X95692301Y-129139136D01*
X95692301Y-129139136D02*
X96025634Y-129139136D01*
X96025634Y-129139136D02*
X96216110Y-129186755D01*
X96216110Y-129186755D02*
X96311349Y-129281993D01*
X96311349Y-129281993D02*
X96358968Y-129377231D01*
X96358968Y-129377231D02*
X96358968Y-129567707D01*
X96358968Y-129567707D02*
X96311349Y-129662945D01*
X96311349Y-129662945D02*
X96216110Y-129758183D01*
X96216110Y-129758183D02*
X96025634Y-129805802D01*
X96025634Y-129805802D02*
X95692301Y-129805802D01*
X95692301Y-129805802D02*
X95501825Y-129758183D01*
X95501825Y-129758183D02*
X95406587Y-129662945D01*
X95406587Y-129662945D02*
X95358968Y-129567707D01*
X96358968Y-128139136D02*
X95882777Y-128472469D01*
X96358968Y-128710564D02*
X95358968Y-128710564D01*
X95358968Y-128710564D02*
X95358968Y-128329612D01*
X95358968Y-128329612D02*
X95406587Y-128234374D01*
X95406587Y-128234374D02*
X95454206Y-128186755D01*
X95454206Y-128186755D02*
X95549444Y-128139136D01*
X95549444Y-128139136D02*
X95692301Y-128139136D01*
X95692301Y-128139136D02*
X95787539Y-128186755D01*
X95787539Y-128186755D02*
X95835158Y-128234374D01*
X95835158Y-128234374D02*
X95882777Y-128329612D01*
X95882777Y-128329612D02*
X95882777Y-128710564D01*
X95835158Y-126615326D02*
X95882777Y-126472469D01*
X95882777Y-126472469D02*
X95930396Y-126424850D01*
X95930396Y-126424850D02*
X96025634Y-126377231D01*
X96025634Y-126377231D02*
X96168491Y-126377231D01*
X96168491Y-126377231D02*
X96263729Y-126424850D01*
X96263729Y-126424850D02*
X96311349Y-126472469D01*
X96311349Y-126472469D02*
X96358968Y-126567707D01*
X96358968Y-126567707D02*
X96358968Y-126948659D01*
X96358968Y-126948659D02*
X95358968Y-126948659D01*
X95358968Y-126948659D02*
X95358968Y-126615326D01*
X95358968Y-126615326D02*
X95406587Y-126520088D01*
X95406587Y-126520088D02*
X95454206Y-126472469D01*
X95454206Y-126472469D02*
X95549444Y-126424850D01*
X95549444Y-126424850D02*
X95644682Y-126424850D01*
X95644682Y-126424850D02*
X95739920Y-126472469D01*
X95739920Y-126472469D02*
X95787539Y-126520088D01*
X95787539Y-126520088D02*
X95835158Y-126615326D01*
X95835158Y-126615326D02*
X95835158Y-126948659D01*
X95358968Y-125758183D02*
X95358968Y-125567707D01*
X95358968Y-125567707D02*
X95406587Y-125472469D01*
X95406587Y-125472469D02*
X95501825Y-125377231D01*
X95501825Y-125377231D02*
X95692301Y-125329612D01*
X95692301Y-125329612D02*
X96025634Y-125329612D01*
X96025634Y-125329612D02*
X96216110Y-125377231D01*
X96216110Y-125377231D02*
X96311349Y-125472469D01*
X96311349Y-125472469D02*
X96358968Y-125567707D01*
X96358968Y-125567707D02*
X96358968Y-125758183D01*
X96358968Y-125758183D02*
X96311349Y-125853421D01*
X96311349Y-125853421D02*
X96216110Y-125948659D01*
X96216110Y-125948659D02*
X96025634Y-125996278D01*
X96025634Y-125996278D02*
X95692301Y-125996278D01*
X95692301Y-125996278D02*
X95501825Y-125948659D01*
X95501825Y-125948659D02*
X95406587Y-125853421D01*
X95406587Y-125853421D02*
X95358968Y-125758183D01*
X96073253Y-124948659D02*
X96073253Y-124472469D01*
X96358968Y-125043897D02*
X95358968Y-124710564D01*
X95358968Y-124710564D02*
X96358968Y-124377231D01*
X96358968Y-123472469D02*
X95882777Y-123805802D01*
X96358968Y-124043897D02*
X95358968Y-124043897D01*
X95358968Y-124043897D02*
X95358968Y-123662945D01*
X95358968Y-123662945D02*
X95406587Y-123567707D01*
X95406587Y-123567707D02*
X95454206Y-123520088D01*
X95454206Y-123520088D02*
X95549444Y-123472469D01*
X95549444Y-123472469D02*
X95692301Y-123472469D01*
X95692301Y-123472469D02*
X95787539Y-123520088D01*
X95787539Y-123520088D02*
X95835158Y-123567707D01*
X95835158Y-123567707D02*
X95882777Y-123662945D01*
X95882777Y-123662945D02*
X95882777Y-124043897D01*
X96358968Y-123043897D02*
X95358968Y-123043897D01*
X95358968Y-123043897D02*
X95358968Y-122805802D01*
X95358968Y-122805802D02*
X95406587Y-122662945D01*
X95406587Y-122662945D02*
X95501825Y-122567707D01*
X95501825Y-122567707D02*
X95597063Y-122520088D01*
X95597063Y-122520088D02*
X95787539Y-122472469D01*
X95787539Y-122472469D02*
X95930396Y-122472469D01*
X95930396Y-122472469D02*
X96120872Y-122520088D01*
X96120872Y-122520088D02*
X96216110Y-122567707D01*
X96216110Y-122567707D02*
X96311349Y-122662945D01*
X96311349Y-122662945D02*
X96358968Y-122805802D01*
X96358968Y-122805802D02*
X96358968Y-123043897D01*
X96968968Y-133758183D02*
X97968968Y-133424850D01*
X97968968Y-133424850D02*
X96968968Y-133091517D01*
X97968968Y-132234374D02*
X97968968Y-132805802D01*
X97968968Y-132520088D02*
X96968968Y-132520088D01*
X96968968Y-132520088D02*
X97111825Y-132615326D01*
X97111825Y-132615326D02*
X97207063Y-132710564D01*
X97207063Y-132710564D02*
X97254682Y-132805802D01*
X97873729Y-131805802D02*
X97921349Y-131758183D01*
X97921349Y-131758183D02*
X97968968Y-131805802D01*
X97968968Y-131805802D02*
X97921349Y-131853421D01*
X97921349Y-131853421D02*
X97873729Y-131805802D01*
X97873729Y-131805802D02*
X97968968Y-131805802D01*
X97968968Y-130805803D02*
X97968968Y-131377231D01*
X97968968Y-131091517D02*
X96968968Y-131091517D01*
X96968968Y-131091517D02*
X97111825Y-131186755D01*
X97111825Y-131186755D02*
X97207063Y-131281993D01*
X97207063Y-131281993D02*
X97254682Y-131377231D01*
X98578968Y-133424850D02*
X98578968Y-133234374D01*
X98578968Y-133234374D02*
X98626587Y-133139136D01*
X98626587Y-133139136D02*
X98721825Y-133043898D01*
X98721825Y-133043898D02*
X98912301Y-132996279D01*
X98912301Y-132996279D02*
X99245634Y-132996279D01*
X99245634Y-132996279D02*
X99436110Y-133043898D01*
X99436110Y-133043898D02*
X99531349Y-133139136D01*
X99531349Y-133139136D02*
X99578968Y-133234374D01*
X99578968Y-133234374D02*
X99578968Y-133424850D01*
X99578968Y-133424850D02*
X99531349Y-133520088D01*
X99531349Y-133520088D02*
X99436110Y-133615326D01*
X99436110Y-133615326D02*
X99245634Y-133662945D01*
X99245634Y-133662945D02*
X98912301Y-133662945D01*
X98912301Y-133662945D02*
X98721825Y-133615326D01*
X98721825Y-133615326D02*
X98626587Y-133520088D01*
X98626587Y-133520088D02*
X98578968Y-133424850D01*
X99578968Y-132091517D02*
X99578968Y-132567707D01*
X99578968Y-132567707D02*
X98578968Y-132567707D01*
X99578968Y-131758183D02*
X98578968Y-131758183D01*
X98578968Y-131424850D02*
X99578968Y-131091517D01*
X99578968Y-131091517D02*
X98578968Y-130758184D01*
X99055158Y-130424850D02*
X99055158Y-130091517D01*
X99578968Y-129948660D02*
X99578968Y-130424850D01*
X99578968Y-130424850D02*
X98578968Y-130424850D01*
X98578968Y-130424850D02*
X98578968Y-129948660D01*
X99578968Y-128948660D02*
X99102777Y-129281993D01*
X99578968Y-129520088D02*
X98578968Y-129520088D01*
X98578968Y-129520088D02*
X98578968Y-129139136D01*
X98578968Y-129139136D02*
X98626587Y-129043898D01*
X98626587Y-129043898D02*
X98674206Y-128996279D01*
X98674206Y-128996279D02*
X98769444Y-128948660D01*
X98769444Y-128948660D02*
X98912301Y-128948660D01*
X98912301Y-128948660D02*
X99007539Y-128996279D01*
X99007539Y-128996279D02*
X99055158Y-129043898D01*
X99055158Y-129043898D02*
X99102777Y-129139136D01*
X99102777Y-129139136D02*
X99102777Y-129520088D01*
X99578968Y-127186755D02*
X99102777Y-127520088D01*
X99578968Y-127758183D02*
X98578968Y-127758183D01*
X98578968Y-127758183D02*
X98578968Y-127377231D01*
X98578968Y-127377231D02*
X98626587Y-127281993D01*
X98626587Y-127281993D02*
X98674206Y-127234374D01*
X98674206Y-127234374D02*
X98769444Y-127186755D01*
X98769444Y-127186755D02*
X98912301Y-127186755D01*
X98912301Y-127186755D02*
X99007539Y-127234374D01*
X99007539Y-127234374D02*
X99055158Y-127281993D01*
X99055158Y-127281993D02*
X99102777Y-127377231D01*
X99102777Y-127377231D02*
X99102777Y-127758183D01*
X99055158Y-126758183D02*
X99055158Y-126424850D01*
X99578968Y-126281993D02*
X99578968Y-126758183D01*
X99578968Y-126758183D02*
X98578968Y-126758183D01*
X98578968Y-126758183D02*
X98578968Y-126281993D01*
X98578968Y-125948659D02*
X99578968Y-125710564D01*
X99578968Y-125710564D02*
X98864682Y-125520088D01*
X98864682Y-125520088D02*
X99578968Y-125329612D01*
X99578968Y-125329612D02*
X98578968Y-125091517D01*
X101188968Y-133091517D02*
X101188968Y-133662945D01*
X101188968Y-133377231D02*
X100188968Y-133377231D01*
X100188968Y-133377231D02*
X100331825Y-133472469D01*
X100331825Y-133472469D02*
X100427063Y-133567707D01*
X100427063Y-133567707D02*
X100474682Y-133662945D01*
X100284206Y-132710564D02*
X100236587Y-132662945D01*
X100236587Y-132662945D02*
X100188968Y-132567707D01*
X100188968Y-132567707D02*
X100188968Y-132329612D01*
X100188968Y-132329612D02*
X100236587Y-132234374D01*
X100236587Y-132234374D02*
X100284206Y-132186755D01*
X100284206Y-132186755D02*
X100379444Y-132139136D01*
X100379444Y-132139136D02*
X100474682Y-132139136D01*
X100474682Y-132139136D02*
X100617539Y-132186755D01*
X100617539Y-132186755D02*
X101188968Y-132758183D01*
X101188968Y-132758183D02*
X101188968Y-132139136D01*
X100808015Y-131710564D02*
X100808015Y-130948660D01*
X100284206Y-130520088D02*
X100236587Y-130472469D01*
X100236587Y-130472469D02*
X100188968Y-130377231D01*
X100188968Y-130377231D02*
X100188968Y-130139136D01*
X100188968Y-130139136D02*
X100236587Y-130043898D01*
X100236587Y-130043898D02*
X100284206Y-129996279D01*
X100284206Y-129996279D02*
X100379444Y-129948660D01*
X100379444Y-129948660D02*
X100474682Y-129948660D01*
X100474682Y-129948660D02*
X100617539Y-129996279D01*
X100617539Y-129996279D02*
X101188968Y-130567707D01*
X101188968Y-130567707D02*
X101188968Y-129948660D01*
X100188968Y-129615326D02*
X100188968Y-128996279D01*
X100188968Y-128996279D02*
X100569920Y-129329612D01*
X100569920Y-129329612D02*
X100569920Y-129186755D01*
X100569920Y-129186755D02*
X100617539Y-129091517D01*
X100617539Y-129091517D02*
X100665158Y-129043898D01*
X100665158Y-129043898D02*
X100760396Y-128996279D01*
X100760396Y-128996279D02*
X100998491Y-128996279D01*
X100998491Y-128996279D02*
X101093729Y-129043898D01*
X101093729Y-129043898D02*
X101141349Y-129091517D01*
X101141349Y-129091517D02*
X101188968Y-129186755D01*
X101188968Y-129186755D02*
X101188968Y-129472469D01*
X101188968Y-129472469D02*
X101141349Y-129567707D01*
X101141349Y-129567707D02*
X101093729Y-129615326D01*
X100808015Y-128567707D02*
X100808015Y-127805803D01*
X100284206Y-127377231D02*
X100236587Y-127329612D01*
X100236587Y-127329612D02*
X100188968Y-127234374D01*
X100188968Y-127234374D02*
X100188968Y-126996279D01*
X100188968Y-126996279D02*
X100236587Y-126901041D01*
X100236587Y-126901041D02*
X100284206Y-126853422D01*
X100284206Y-126853422D02*
X100379444Y-126805803D01*
X100379444Y-126805803D02*
X100474682Y-126805803D01*
X100474682Y-126805803D02*
X100617539Y-126853422D01*
X100617539Y-126853422D02*
X101188968Y-127424850D01*
X101188968Y-127424850D02*
X101188968Y-126805803D01*
X100188968Y-126472469D02*
X100188968Y-125853422D01*
X100188968Y-125853422D02*
X100569920Y-126186755D01*
X100569920Y-126186755D02*
X100569920Y-126043898D01*
X100569920Y-126043898D02*
X100617539Y-125948660D01*
X100617539Y-125948660D02*
X100665158Y-125901041D01*
X100665158Y-125901041D02*
X100760396Y-125853422D01*
X100760396Y-125853422D02*
X100998491Y-125853422D01*
X100998491Y-125853422D02*
X101093729Y-125901041D01*
X101093729Y-125901041D02*
X101141349Y-125948660D01*
X101141349Y-125948660D02*
X101188968Y-126043898D01*
X101188968Y-126043898D02*
X101188968Y-126329612D01*
X101188968Y-126329612D02*
X101141349Y-126424850D01*
X101141349Y-126424850D02*
X101093729Y-126472469D01*
D10*
X181734429Y-122459299D02*
X181734429Y-123792633D01*
X181258238Y-121697395D02*
X180782048Y-123125966D01*
X180782048Y-123125966D02*
X182020143Y-123125966D01*
X182686810Y-123221204D02*
X183639191Y-123221204D01*
X182496334Y-123792633D02*
X183163000Y-121792633D01*
X183163000Y-121792633D02*
X183829667Y-123792633D01*
X159142280Y-60594238D02*
X158761327Y-60594238D01*
X158761327Y-60594238D02*
X158570851Y-60689476D01*
X158570851Y-60689476D02*
X158475613Y-60784714D01*
X158475613Y-60784714D02*
X158285137Y-61070428D01*
X158285137Y-61070428D02*
X158189899Y-61451380D01*
X158189899Y-61451380D02*
X158189899Y-62213285D01*
X158189899Y-62213285D02*
X158285137Y-62403761D01*
X158285137Y-62403761D02*
X158380375Y-62499000D01*
X158380375Y-62499000D02*
X158570851Y-62594238D01*
X158570851Y-62594238D02*
X158951804Y-62594238D01*
X158951804Y-62594238D02*
X159142280Y-62499000D01*
X159142280Y-62499000D02*
X159237518Y-62403761D01*
X159237518Y-62403761D02*
X159332756Y-62213285D01*
X159332756Y-62213285D02*
X159332756Y-61737095D01*
X159332756Y-61737095D02*
X159237518Y-61546619D01*
X159237518Y-61546619D02*
X159142280Y-61451380D01*
X159142280Y-61451380D02*
X158951804Y-61356142D01*
X158951804Y-61356142D02*
X158570851Y-61356142D01*
X158570851Y-61356142D02*
X158380375Y-61451380D01*
X158380375Y-61451380D02*
X158285137Y-61546619D01*
X158285137Y-61546619D02*
X158189899Y-61737095D01*
X160094661Y-62022809D02*
X161047042Y-62022809D01*
X159904185Y-62594238D02*
X160570851Y-60594238D01*
X160570851Y-60594238D02*
X161237518Y-62594238D01*
X164857280Y-60594238D02*
X164476327Y-60594238D01*
X164476327Y-60594238D02*
X164285851Y-60689476D01*
X164285851Y-60689476D02*
X164190613Y-60784714D01*
X164190613Y-60784714D02*
X164000137Y-61070428D01*
X164000137Y-61070428D02*
X163904899Y-61451380D01*
X163904899Y-61451380D02*
X163904899Y-62213285D01*
X163904899Y-62213285D02*
X164000137Y-62403761D01*
X164000137Y-62403761D02*
X164095375Y-62499000D01*
X164095375Y-62499000D02*
X164285851Y-62594238D01*
X164285851Y-62594238D02*
X164666804Y-62594238D01*
X164666804Y-62594238D02*
X164857280Y-62499000D01*
X164857280Y-62499000D02*
X164952518Y-62403761D01*
X164952518Y-62403761D02*
X165047756Y-62213285D01*
X165047756Y-62213285D02*
X165047756Y-61737095D01*
X165047756Y-61737095D02*
X164952518Y-61546619D01*
X164952518Y-61546619D02*
X164857280Y-61451380D01*
X164857280Y-61451380D02*
X164666804Y-61356142D01*
X164666804Y-61356142D02*
X164285851Y-61356142D01*
X164285851Y-61356142D02*
X164095375Y-61451380D01*
X164095375Y-61451380D02*
X164000137Y-61546619D01*
X164000137Y-61546619D02*
X163904899Y-61737095D01*
X166571566Y-61546619D02*
X166857280Y-61641857D01*
X166857280Y-61641857D02*
X166952518Y-61737095D01*
X166952518Y-61737095D02*
X167047756Y-61927571D01*
X167047756Y-61927571D02*
X167047756Y-62213285D01*
X167047756Y-62213285D02*
X166952518Y-62403761D01*
X166952518Y-62403761D02*
X166857280Y-62499000D01*
X166857280Y-62499000D02*
X166666804Y-62594238D01*
X166666804Y-62594238D02*
X165904899Y-62594238D01*
X165904899Y-62594238D02*
X165904899Y-60594238D01*
X165904899Y-60594238D02*
X166571566Y-60594238D01*
X166571566Y-60594238D02*
X166762042Y-60689476D01*
X166762042Y-60689476D02*
X166857280Y-60784714D01*
X166857280Y-60784714D02*
X166952518Y-60975190D01*
X166952518Y-60975190D02*
X166952518Y-61165666D01*
X166952518Y-61165666D02*
X166857280Y-61356142D01*
X166857280Y-61356142D02*
X166762042Y-61451380D01*
X166762042Y-61451380D02*
X166571566Y-61546619D01*
X166571566Y-61546619D02*
X165904899Y-61546619D01*
D14*
X101448082Y-85732257D02*
X102162368Y-85732257D01*
X101305225Y-86160828D02*
X101805225Y-84660828D01*
X101805225Y-84660828D02*
X102305225Y-86160828D01*
X102805224Y-86160828D02*
X102805224Y-84660828D01*
X102805224Y-84660828D02*
X103162367Y-84660828D01*
X103162367Y-84660828D02*
X103376653Y-84732257D01*
X103376653Y-84732257D02*
X103519510Y-84875114D01*
X103519510Y-84875114D02*
X103590939Y-85017971D01*
X103590939Y-85017971D02*
X103662367Y-85303685D01*
X103662367Y-85303685D02*
X103662367Y-85517971D01*
X103662367Y-85517971D02*
X103590939Y-85803685D01*
X103590939Y-85803685D02*
X103519510Y-85946542D01*
X103519510Y-85946542D02*
X103376653Y-86089400D01*
X103376653Y-86089400D02*
X103162367Y-86160828D01*
X103162367Y-86160828D02*
X102805224Y-86160828D01*
X104233796Y-85732257D02*
X104948082Y-85732257D01*
X104090939Y-86160828D02*
X104590939Y-84660828D01*
X104590939Y-84660828D02*
X105090939Y-86160828D01*
X106090938Y-85375114D02*
X105590938Y-85375114D01*
X105590938Y-86160828D02*
X105590938Y-84660828D01*
X105590938Y-84660828D02*
X106305224Y-84660828D01*
X107733795Y-86160828D02*
X107233795Y-85446542D01*
X106876652Y-86160828D02*
X106876652Y-84660828D01*
X106876652Y-84660828D02*
X107448081Y-84660828D01*
X107448081Y-84660828D02*
X107590938Y-84732257D01*
X107590938Y-84732257D02*
X107662367Y-84803685D01*
X107662367Y-84803685D02*
X107733795Y-84946542D01*
X107733795Y-84946542D02*
X107733795Y-85160828D01*
X107733795Y-85160828D02*
X107662367Y-85303685D01*
X107662367Y-85303685D02*
X107590938Y-85375114D01*
X107590938Y-85375114D02*
X107448081Y-85446542D01*
X107448081Y-85446542D02*
X106876652Y-85446542D01*
X108376652Y-84660828D02*
X108376652Y-85875114D01*
X108376652Y-85875114D02*
X108448081Y-86017971D01*
X108448081Y-86017971D02*
X108519510Y-86089400D01*
X108519510Y-86089400D02*
X108662367Y-86160828D01*
X108662367Y-86160828D02*
X108948081Y-86160828D01*
X108948081Y-86160828D02*
X109090938Y-86089400D01*
X109090938Y-86089400D02*
X109162367Y-86017971D01*
X109162367Y-86017971D02*
X109233795Y-85875114D01*
X109233795Y-85875114D02*
X109233795Y-84660828D01*
X109948081Y-86160828D02*
X109948081Y-84660828D01*
X110448082Y-84660828D02*
X111305225Y-84660828D01*
X110876653Y-86160828D02*
X110876653Y-84660828D01*
X112948081Y-85375114D02*
X113448081Y-85375114D01*
X113662367Y-86160828D02*
X112948081Y-86160828D01*
X112948081Y-86160828D02*
X112948081Y-84660828D01*
X112948081Y-84660828D02*
X113662367Y-84660828D01*
X114090939Y-84660828D02*
X114948082Y-84660828D01*
X114519510Y-86160828D02*
X114519510Y-84660828D01*
X115448081Y-86160828D02*
X115448081Y-84660828D01*
X115448081Y-85375114D02*
X116305224Y-85375114D01*
X116305224Y-86160828D02*
X116305224Y-84660828D01*
X117019510Y-85375114D02*
X117519510Y-85375114D01*
X117733796Y-86160828D02*
X117019510Y-86160828D01*
X117019510Y-86160828D02*
X117019510Y-84660828D01*
X117019510Y-84660828D02*
X117733796Y-84660828D01*
X119233796Y-86160828D02*
X118733796Y-85446542D01*
X118376653Y-86160828D02*
X118376653Y-84660828D01*
X118376653Y-84660828D02*
X118948082Y-84660828D01*
X118948082Y-84660828D02*
X119090939Y-84732257D01*
X119090939Y-84732257D02*
X119162368Y-84803685D01*
X119162368Y-84803685D02*
X119233796Y-84946542D01*
X119233796Y-84946542D02*
X119233796Y-85160828D01*
X119233796Y-85160828D02*
X119162368Y-85303685D01*
X119162368Y-85303685D02*
X119090939Y-85375114D01*
X119090939Y-85375114D02*
X118948082Y-85446542D01*
X118948082Y-85446542D02*
X118376653Y-85446542D01*
X119876653Y-86160828D02*
X119876653Y-84660828D01*
X119876653Y-84660828D02*
X120733796Y-86160828D01*
X120733796Y-86160828D02*
X120733796Y-84660828D01*
X121448082Y-85375114D02*
X121948082Y-85375114D01*
X122162368Y-86160828D02*
X121448082Y-86160828D01*
X121448082Y-86160828D02*
X121448082Y-84660828D01*
X121448082Y-84660828D02*
X122162368Y-84660828D01*
X122590940Y-84660828D02*
X123448083Y-84660828D01*
X123019511Y-86160828D02*
X123019511Y-84660828D01*
X125590939Y-85375114D02*
X125090939Y-85375114D01*
X125090939Y-86160828D02*
X125090939Y-84660828D01*
X125090939Y-84660828D02*
X125805225Y-84660828D01*
X126376653Y-85375114D02*
X126876653Y-85375114D01*
X127090939Y-86160828D02*
X126376653Y-86160828D01*
X126376653Y-86160828D02*
X126376653Y-84660828D01*
X126376653Y-84660828D02*
X127090939Y-84660828D01*
X127662368Y-85732257D02*
X128376654Y-85732257D01*
X127519511Y-86160828D02*
X128019511Y-84660828D01*
X128019511Y-84660828D02*
X128519511Y-86160828D01*
X128805225Y-84660828D02*
X129662368Y-84660828D01*
X129233796Y-86160828D02*
X129233796Y-84660828D01*
X130162367Y-86160828D02*
X130162367Y-84660828D01*
X130162367Y-85375114D02*
X131019510Y-85375114D01*
X131019510Y-86160828D02*
X131019510Y-84660828D01*
X131733796Y-85375114D02*
X132233796Y-85375114D01*
X132448082Y-86160828D02*
X131733796Y-86160828D01*
X131733796Y-86160828D02*
X131733796Y-84660828D01*
X131733796Y-84660828D02*
X132448082Y-84660828D01*
X133948082Y-86160828D02*
X133448082Y-85446542D01*
X133090939Y-86160828D02*
X133090939Y-84660828D01*
X133090939Y-84660828D02*
X133662368Y-84660828D01*
X133662368Y-84660828D02*
X133805225Y-84732257D01*
X133805225Y-84732257D02*
X133876654Y-84803685D01*
X133876654Y-84803685D02*
X133948082Y-84946542D01*
X133948082Y-84946542D02*
X133948082Y-85160828D01*
X133948082Y-85160828D02*
X133876654Y-85303685D01*
X133876654Y-85303685D02*
X133805225Y-85375114D01*
X133805225Y-85375114D02*
X133662368Y-85446542D01*
X133662368Y-85446542D02*
X133090939Y-85446542D01*
X134448082Y-84660828D02*
X134805225Y-86160828D01*
X134805225Y-86160828D02*
X135090939Y-85089400D01*
X135090939Y-85089400D02*
X135376654Y-86160828D01*
X135376654Y-86160828D02*
X135733797Y-84660828D01*
X136305225Y-86160828D02*
X136305225Y-84660828D01*
X137019511Y-86160828D02*
X137019511Y-84660828D01*
X137019511Y-84660828D02*
X137876654Y-86160828D01*
X137876654Y-86160828D02*
X137876654Y-84660828D01*
X139376655Y-84732257D02*
X139233798Y-84660828D01*
X139233798Y-84660828D02*
X139019512Y-84660828D01*
X139019512Y-84660828D02*
X138805226Y-84732257D01*
X138805226Y-84732257D02*
X138662369Y-84875114D01*
X138662369Y-84875114D02*
X138590940Y-85017971D01*
X138590940Y-85017971D02*
X138519512Y-85303685D01*
X138519512Y-85303685D02*
X138519512Y-85517971D01*
X138519512Y-85517971D02*
X138590940Y-85803685D01*
X138590940Y-85803685D02*
X138662369Y-85946542D01*
X138662369Y-85946542D02*
X138805226Y-86089400D01*
X138805226Y-86089400D02*
X139019512Y-86160828D01*
X139019512Y-86160828D02*
X139162369Y-86160828D01*
X139162369Y-86160828D02*
X139376655Y-86089400D01*
X139376655Y-86089400D02*
X139448083Y-86017971D01*
X139448083Y-86017971D02*
X139448083Y-85517971D01*
X139448083Y-85517971D02*
X139162369Y-85517971D01*
D10*
X135234661Y-60594238D02*
X136567994Y-60594238D01*
X136567994Y-60594238D02*
X135710851Y-62594238D01*
X137234661Y-62022809D02*
X138187042Y-62022809D01*
X137044185Y-62594238D02*
X137710851Y-60594238D01*
X137710851Y-60594238D02*
X138377518Y-62594238D01*
D14*
X186031428Y-118216900D02*
X187174286Y-118216900D01*
X186602857Y-118788328D02*
X186602857Y-117645471D01*
X188602857Y-117288328D02*
X187888571Y-117288328D01*
X187888571Y-117288328D02*
X187817143Y-118002614D01*
X187817143Y-118002614D02*
X187888571Y-117931185D01*
X187888571Y-117931185D02*
X188031429Y-117859757D01*
X188031429Y-117859757D02*
X188388571Y-117859757D01*
X188388571Y-117859757D02*
X188531429Y-117931185D01*
X188531429Y-117931185D02*
X188602857Y-118002614D01*
X188602857Y-118002614D02*
X188674286Y-118145471D01*
X188674286Y-118145471D02*
X188674286Y-118502614D01*
X188674286Y-118502614D02*
X188602857Y-118645471D01*
X188602857Y-118645471D02*
X188531429Y-118716900D01*
X188531429Y-118716900D02*
X188388571Y-118788328D01*
X188388571Y-118788328D02*
X188031429Y-118788328D01*
X188031429Y-118788328D02*
X187888571Y-118716900D01*
X187888571Y-118716900D02*
X187817143Y-118645471D01*
X189102857Y-117288328D02*
X189602857Y-118788328D01*
X189602857Y-118788328D02*
X190102857Y-117288328D01*
D10*
X135062048Y-121983109D02*
X135157286Y-121887871D01*
X135157286Y-121887871D02*
X135347762Y-121792633D01*
X135347762Y-121792633D02*
X135823953Y-121792633D01*
X135823953Y-121792633D02*
X136014429Y-121887871D01*
X136014429Y-121887871D02*
X136109667Y-121983109D01*
X136109667Y-121983109D02*
X136204905Y-122173585D01*
X136204905Y-122173585D02*
X136204905Y-122364061D01*
X136204905Y-122364061D02*
X136109667Y-122649775D01*
X136109667Y-122649775D02*
X134966810Y-123792633D01*
X134966810Y-123792633D02*
X136204905Y-123792633D01*
X136966810Y-123221204D02*
X137919191Y-123221204D01*
X136776334Y-123792633D02*
X137443000Y-121792633D01*
X137443000Y-121792633D02*
X138109667Y-123792633D01*
D13*
X129292418Y-60994962D02*
X129149561Y-60923533D01*
X129149561Y-60923533D02*
X128935275Y-60923533D01*
X128935275Y-60923533D02*
X128720989Y-60994962D01*
X128720989Y-60994962D02*
X128578132Y-61137819D01*
X128578132Y-61137819D02*
X128506703Y-61280676D01*
X128506703Y-61280676D02*
X128435275Y-61566390D01*
X128435275Y-61566390D02*
X128435275Y-61780676D01*
X128435275Y-61780676D02*
X128506703Y-62066390D01*
X128506703Y-62066390D02*
X128578132Y-62209247D01*
X128578132Y-62209247D02*
X128720989Y-62352105D01*
X128720989Y-62352105D02*
X128935275Y-62423533D01*
X128935275Y-62423533D02*
X129078132Y-62423533D01*
X129078132Y-62423533D02*
X129292418Y-62352105D01*
X129292418Y-62352105D02*
X129363846Y-62280676D01*
X129363846Y-62280676D02*
X129363846Y-61780676D01*
X129363846Y-61780676D02*
X129078132Y-61780676D01*
X130006703Y-62423533D02*
X130006703Y-60923533D01*
X130006703Y-60923533D02*
X130863846Y-62423533D01*
X130863846Y-62423533D02*
X130863846Y-60923533D01*
X131578132Y-62423533D02*
X131578132Y-60923533D01*
X131578132Y-60923533D02*
X131935275Y-60923533D01*
X131935275Y-60923533D02*
X132149561Y-60994962D01*
X132149561Y-60994962D02*
X132292418Y-61137819D01*
X132292418Y-61137819D02*
X132363847Y-61280676D01*
X132363847Y-61280676D02*
X132435275Y-61566390D01*
X132435275Y-61566390D02*
X132435275Y-61780676D01*
X132435275Y-61780676D02*
X132363847Y-62066390D01*
X132363847Y-62066390D02*
X132292418Y-62209247D01*
X132292418Y-62209247D02*
X132149561Y-62352105D01*
X132149561Y-62352105D02*
X131935275Y-62423533D01*
X131935275Y-62423533D02*
X131578132Y-62423533D01*
D10*
X140949661Y-60594238D02*
X142282994Y-60594238D01*
X142282994Y-60594238D02*
X141425851Y-62594238D01*
X143711566Y-61546619D02*
X143997280Y-61641857D01*
X143997280Y-61641857D02*
X144092518Y-61737095D01*
X144092518Y-61737095D02*
X144187756Y-61927571D01*
X144187756Y-61927571D02*
X144187756Y-62213285D01*
X144187756Y-62213285D02*
X144092518Y-62403761D01*
X144092518Y-62403761D02*
X143997280Y-62499000D01*
X143997280Y-62499000D02*
X143806804Y-62594238D01*
X143806804Y-62594238D02*
X143044899Y-62594238D01*
X143044899Y-62594238D02*
X143044899Y-60594238D01*
X143044899Y-60594238D02*
X143711566Y-60594238D01*
X143711566Y-60594238D02*
X143902042Y-60689476D01*
X143902042Y-60689476D02*
X143997280Y-60784714D01*
X143997280Y-60784714D02*
X144092518Y-60975190D01*
X144092518Y-60975190D02*
X144092518Y-61165666D01*
X144092518Y-61165666D02*
X143997280Y-61356142D01*
X143997280Y-61356142D02*
X143902042Y-61451380D01*
X143902042Y-61451380D02*
X143711566Y-61546619D01*
X143711566Y-61546619D02*
X143044899Y-61546619D01*
X187812518Y-60594238D02*
X186860137Y-60594238D01*
X186860137Y-60594238D02*
X186764899Y-61546619D01*
X186764899Y-61546619D02*
X186860137Y-61451380D01*
X186860137Y-61451380D02*
X187050613Y-61356142D01*
X187050613Y-61356142D02*
X187526804Y-61356142D01*
X187526804Y-61356142D02*
X187717280Y-61451380D01*
X187717280Y-61451380D02*
X187812518Y-61546619D01*
X187812518Y-61546619D02*
X187907756Y-61737095D01*
X187907756Y-61737095D02*
X187907756Y-62213285D01*
X187907756Y-62213285D02*
X187812518Y-62403761D01*
X187812518Y-62403761D02*
X187717280Y-62499000D01*
X187717280Y-62499000D02*
X187526804Y-62594238D01*
X187526804Y-62594238D02*
X187050613Y-62594238D01*
X187050613Y-62594238D02*
X186860137Y-62499000D01*
X186860137Y-62499000D02*
X186764899Y-62403761D01*
X189431566Y-61546619D02*
X189717280Y-61641857D01*
X189717280Y-61641857D02*
X189812518Y-61737095D01*
X189812518Y-61737095D02*
X189907756Y-61927571D01*
X189907756Y-61927571D02*
X189907756Y-62213285D01*
X189907756Y-62213285D02*
X189812518Y-62403761D01*
X189812518Y-62403761D02*
X189717280Y-62499000D01*
X189717280Y-62499000D02*
X189526804Y-62594238D01*
X189526804Y-62594238D02*
X188764899Y-62594238D01*
X188764899Y-62594238D02*
X188764899Y-60594238D01*
X188764899Y-60594238D02*
X189431566Y-60594238D01*
X189431566Y-60594238D02*
X189622042Y-60689476D01*
X189622042Y-60689476D02*
X189717280Y-60784714D01*
X189717280Y-60784714D02*
X189812518Y-60975190D01*
X189812518Y-60975190D02*
X189812518Y-61165666D01*
X189812518Y-61165666D02*
X189717280Y-61356142D01*
X189717280Y-61356142D02*
X189622042Y-61451380D01*
X189622042Y-61451380D02*
X189431566Y-61546619D01*
X189431566Y-61546619D02*
X188764899Y-61546619D01*
D15*
X178531497Y-102072097D02*
X178674354Y-102119716D01*
X178674354Y-102119716D02*
X178721973Y-102167335D01*
X178721973Y-102167335D02*
X178769592Y-102262573D01*
X178769592Y-102262573D02*
X178769592Y-102405430D01*
X178769592Y-102405430D02*
X178721973Y-102500668D01*
X178721973Y-102500668D02*
X178674354Y-102548288D01*
X178674354Y-102548288D02*
X178579116Y-102595907D01*
X178579116Y-102595907D02*
X178198164Y-102595907D01*
X178198164Y-102595907D02*
X178198164Y-101595907D01*
X178198164Y-101595907D02*
X178531497Y-101595907D01*
X178531497Y-101595907D02*
X178626735Y-101643526D01*
X178626735Y-101643526D02*
X178674354Y-101691145D01*
X178674354Y-101691145D02*
X178721973Y-101786383D01*
X178721973Y-101786383D02*
X178721973Y-101881621D01*
X178721973Y-101881621D02*
X178674354Y-101976859D01*
X178674354Y-101976859D02*
X178626735Y-102024478D01*
X178626735Y-102024478D02*
X178531497Y-102072097D01*
X178531497Y-102072097D02*
X178198164Y-102072097D01*
X179388640Y-101595907D02*
X179579116Y-101595907D01*
X179579116Y-101595907D02*
X179674354Y-101643526D01*
X179674354Y-101643526D02*
X179769592Y-101738764D01*
X179769592Y-101738764D02*
X179817211Y-101929240D01*
X179817211Y-101929240D02*
X179817211Y-102262573D01*
X179817211Y-102262573D02*
X179769592Y-102453049D01*
X179769592Y-102453049D02*
X179674354Y-102548288D01*
X179674354Y-102548288D02*
X179579116Y-102595907D01*
X179579116Y-102595907D02*
X179388640Y-102595907D01*
X179388640Y-102595907D02*
X179293402Y-102548288D01*
X179293402Y-102548288D02*
X179198164Y-102453049D01*
X179198164Y-102453049D02*
X179150545Y-102262573D01*
X179150545Y-102262573D02*
X179150545Y-101929240D01*
X179150545Y-101929240D02*
X179198164Y-101738764D01*
X179198164Y-101738764D02*
X179293402Y-101643526D01*
X179293402Y-101643526D02*
X179388640Y-101595907D01*
X180198164Y-102310192D02*
X180674354Y-102310192D01*
X180102926Y-102595907D02*
X180436259Y-101595907D01*
X180436259Y-101595907D02*
X180769592Y-102595907D01*
X181674354Y-102595907D02*
X181341021Y-102119716D01*
X181102926Y-102595907D02*
X181102926Y-101595907D01*
X181102926Y-101595907D02*
X181483878Y-101595907D01*
X181483878Y-101595907D02*
X181579116Y-101643526D01*
X181579116Y-101643526D02*
X181626735Y-101691145D01*
X181626735Y-101691145D02*
X181674354Y-101786383D01*
X181674354Y-101786383D02*
X181674354Y-101929240D01*
X181674354Y-101929240D02*
X181626735Y-102024478D01*
X181626735Y-102024478D02*
X181579116Y-102072097D01*
X181579116Y-102072097D02*
X181483878Y-102119716D01*
X181483878Y-102119716D02*
X181102926Y-102119716D01*
X182102926Y-102595907D02*
X182102926Y-101595907D01*
X182102926Y-101595907D02*
X182341021Y-101595907D01*
X182341021Y-101595907D02*
X182483878Y-101643526D01*
X182483878Y-101643526D02*
X182579116Y-101738764D01*
X182579116Y-101738764D02*
X182626735Y-101834002D01*
X182626735Y-101834002D02*
X182674354Y-102024478D01*
X182674354Y-102024478D02*
X182674354Y-102167335D01*
X182674354Y-102167335D02*
X182626735Y-102357811D01*
X182626735Y-102357811D02*
X182579116Y-102453049D01*
X182579116Y-102453049D02*
X182483878Y-102548288D01*
X182483878Y-102548288D02*
X182341021Y-102595907D01*
X182341021Y-102595907D02*
X182102926Y-102595907D01*
X183864831Y-102595907D02*
X183864831Y-101595907D01*
X184341021Y-102595907D02*
X184341021Y-101595907D01*
X184341021Y-101595907D02*
X184579116Y-101595907D01*
X184579116Y-101595907D02*
X184721973Y-101643526D01*
X184721973Y-101643526D02*
X184817211Y-101738764D01*
X184817211Y-101738764D02*
X184864830Y-101834002D01*
X184864830Y-101834002D02*
X184912449Y-102024478D01*
X184912449Y-102024478D02*
X184912449Y-102167335D01*
X184912449Y-102167335D02*
X184864830Y-102357811D01*
X184864830Y-102357811D02*
X184817211Y-102453049D01*
X184817211Y-102453049D02*
X184721973Y-102548288D01*
X184721973Y-102548288D02*
X184579116Y-102595907D01*
X184579116Y-102595907D02*
X184341021Y-102595907D01*
X175198163Y-103205907D02*
X175388639Y-103205907D01*
X175388639Y-103205907D02*
X175483877Y-103253526D01*
X175483877Y-103253526D02*
X175579115Y-103348764D01*
X175579115Y-103348764D02*
X175626734Y-103539240D01*
X175626734Y-103539240D02*
X175626734Y-103872573D01*
X175626734Y-103872573D02*
X175579115Y-104063049D01*
X175579115Y-104063049D02*
X175483877Y-104158288D01*
X175483877Y-104158288D02*
X175388639Y-104205907D01*
X175388639Y-104205907D02*
X175198163Y-104205907D01*
X175198163Y-104205907D02*
X175102925Y-104158288D01*
X175102925Y-104158288D02*
X175007687Y-104063049D01*
X175007687Y-104063049D02*
X174960068Y-103872573D01*
X174960068Y-103872573D02*
X174960068Y-103539240D01*
X174960068Y-103539240D02*
X175007687Y-103348764D01*
X175007687Y-103348764D02*
X175102925Y-103253526D01*
X175102925Y-103253526D02*
X175198163Y-103205907D01*
X176055306Y-104205907D02*
X176055306Y-103205907D01*
X176055306Y-103205907D02*
X176626734Y-104205907D01*
X176626734Y-104205907D02*
X176626734Y-103205907D01*
X177864830Y-103682097D02*
X178626735Y-103682097D01*
X178626735Y-103967811D02*
X177864830Y-103967811D01*
X180055306Y-103205907D02*
X180150544Y-103205907D01*
X180150544Y-103205907D02*
X180245782Y-103253526D01*
X180245782Y-103253526D02*
X180293401Y-103301145D01*
X180293401Y-103301145D02*
X180341020Y-103396383D01*
X180341020Y-103396383D02*
X180388639Y-103586859D01*
X180388639Y-103586859D02*
X180388639Y-103824954D01*
X180388639Y-103824954D02*
X180341020Y-104015430D01*
X180341020Y-104015430D02*
X180293401Y-104110668D01*
X180293401Y-104110668D02*
X180245782Y-104158288D01*
X180245782Y-104158288D02*
X180150544Y-104205907D01*
X180150544Y-104205907D02*
X180055306Y-104205907D01*
X180055306Y-104205907D02*
X179960068Y-104158288D01*
X179960068Y-104158288D02*
X179912449Y-104110668D01*
X179912449Y-104110668D02*
X179864830Y-104015430D01*
X179864830Y-104015430D02*
X179817211Y-103824954D01*
X179817211Y-103824954D02*
X179817211Y-103586859D01*
X179817211Y-103586859D02*
X179864830Y-103396383D01*
X179864830Y-103396383D02*
X179912449Y-103301145D01*
X179912449Y-103301145D02*
X179960068Y-103253526D01*
X179960068Y-103253526D02*
X180055306Y-103205907D01*
X180864830Y-104158288D02*
X180864830Y-104205907D01*
X180864830Y-104205907D02*
X180817211Y-104301145D01*
X180817211Y-104301145D02*
X180769592Y-104348764D01*
X180817211Y-103586859D02*
X180864830Y-103634478D01*
X180864830Y-103634478D02*
X180817211Y-103682097D01*
X180817211Y-103682097D02*
X180769592Y-103634478D01*
X180769592Y-103634478D02*
X180817211Y-103586859D01*
X180817211Y-103586859D02*
X180817211Y-103682097D01*
X182245782Y-103205907D02*
X182436258Y-103205907D01*
X182436258Y-103205907D02*
X182531496Y-103253526D01*
X182531496Y-103253526D02*
X182626734Y-103348764D01*
X182626734Y-103348764D02*
X182674353Y-103539240D01*
X182674353Y-103539240D02*
X182674353Y-103872573D01*
X182674353Y-103872573D02*
X182626734Y-104063049D01*
X182626734Y-104063049D02*
X182531496Y-104158288D01*
X182531496Y-104158288D02*
X182436258Y-104205907D01*
X182436258Y-104205907D02*
X182245782Y-104205907D01*
X182245782Y-104205907D02*
X182150544Y-104158288D01*
X182150544Y-104158288D02*
X182055306Y-104063049D01*
X182055306Y-104063049D02*
X182007687Y-103872573D01*
X182007687Y-103872573D02*
X182007687Y-103539240D01*
X182007687Y-103539240D02*
X182055306Y-103348764D01*
X182055306Y-103348764D02*
X182150544Y-103253526D01*
X182150544Y-103253526D02*
X182245782Y-103205907D01*
X183436258Y-103682097D02*
X183102925Y-103682097D01*
X183102925Y-104205907D02*
X183102925Y-103205907D01*
X183102925Y-103205907D02*
X183579115Y-103205907D01*
X184293401Y-103682097D02*
X183960068Y-103682097D01*
X183960068Y-104205907D02*
X183960068Y-103205907D01*
X183960068Y-103205907D02*
X184436258Y-103205907D01*
X185579116Y-103682097D02*
X186341021Y-103682097D01*
X186341021Y-103967811D02*
X185579116Y-103967811D01*
X188102925Y-104205907D02*
X187531497Y-104205907D01*
X187817211Y-104205907D02*
X187817211Y-103205907D01*
X187817211Y-103205907D02*
X187721973Y-103348764D01*
X187721973Y-103348764D02*
X187626735Y-103444002D01*
X187626735Y-103444002D02*
X187531497Y-103491621D01*
D10*
X118565851Y-61451380D02*
X118375375Y-61356142D01*
X118375375Y-61356142D02*
X118280137Y-61260904D01*
X118280137Y-61260904D02*
X118184899Y-61070428D01*
X118184899Y-61070428D02*
X118184899Y-60975190D01*
X118184899Y-60975190D02*
X118280137Y-60784714D01*
X118280137Y-60784714D02*
X118375375Y-60689476D01*
X118375375Y-60689476D02*
X118565851Y-60594238D01*
X118565851Y-60594238D02*
X118946804Y-60594238D01*
X118946804Y-60594238D02*
X119137280Y-60689476D01*
X119137280Y-60689476D02*
X119232518Y-60784714D01*
X119232518Y-60784714D02*
X119327756Y-60975190D01*
X119327756Y-60975190D02*
X119327756Y-61070428D01*
X119327756Y-61070428D02*
X119232518Y-61260904D01*
X119232518Y-61260904D02*
X119137280Y-61356142D01*
X119137280Y-61356142D02*
X118946804Y-61451380D01*
X118946804Y-61451380D02*
X118565851Y-61451380D01*
X118565851Y-61451380D02*
X118375375Y-61546619D01*
X118375375Y-61546619D02*
X118280137Y-61641857D01*
X118280137Y-61641857D02*
X118184899Y-61832333D01*
X118184899Y-61832333D02*
X118184899Y-62213285D01*
X118184899Y-62213285D02*
X118280137Y-62403761D01*
X118280137Y-62403761D02*
X118375375Y-62499000D01*
X118375375Y-62499000D02*
X118565851Y-62594238D01*
X118565851Y-62594238D02*
X118946804Y-62594238D01*
X118946804Y-62594238D02*
X119137280Y-62499000D01*
X119137280Y-62499000D02*
X119232518Y-62403761D01*
X119232518Y-62403761D02*
X119327756Y-62213285D01*
X119327756Y-62213285D02*
X119327756Y-61832333D01*
X119327756Y-61832333D02*
X119232518Y-61641857D01*
X119232518Y-61641857D02*
X119137280Y-61546619D01*
X119137280Y-61546619D02*
X118946804Y-61451380D01*
X120851566Y-61546619D02*
X121137280Y-61641857D01*
X121137280Y-61641857D02*
X121232518Y-61737095D01*
X121232518Y-61737095D02*
X121327756Y-61927571D01*
X121327756Y-61927571D02*
X121327756Y-62213285D01*
X121327756Y-62213285D02*
X121232518Y-62403761D01*
X121232518Y-62403761D02*
X121137280Y-62499000D01*
X121137280Y-62499000D02*
X120946804Y-62594238D01*
X120946804Y-62594238D02*
X120184899Y-62594238D01*
X120184899Y-62594238D02*
X120184899Y-60594238D01*
X120184899Y-60594238D02*
X120851566Y-60594238D01*
X120851566Y-60594238D02*
X121042042Y-60689476D01*
X121042042Y-60689476D02*
X121137280Y-60784714D01*
X121137280Y-60784714D02*
X121232518Y-60975190D01*
X121232518Y-60975190D02*
X121232518Y-61165666D01*
X121232518Y-61165666D02*
X121137280Y-61356142D01*
X121137280Y-61356142D02*
X121042042Y-61451380D01*
X121042042Y-61451380D02*
X120851566Y-61546619D01*
X120851566Y-61546619D02*
X120184899Y-61546619D01*
D14*
X105537143Y-117359757D02*
X105394286Y-117288328D01*
X105394286Y-117288328D02*
X105180000Y-117288328D01*
X105180000Y-117288328D02*
X104965714Y-117359757D01*
X104965714Y-117359757D02*
X104822857Y-117502614D01*
X104822857Y-117502614D02*
X104751428Y-117645471D01*
X104751428Y-117645471D02*
X104680000Y-117931185D01*
X104680000Y-117931185D02*
X104680000Y-118145471D01*
X104680000Y-118145471D02*
X104751428Y-118431185D01*
X104751428Y-118431185D02*
X104822857Y-118574042D01*
X104822857Y-118574042D02*
X104965714Y-118716900D01*
X104965714Y-118716900D02*
X105180000Y-118788328D01*
X105180000Y-118788328D02*
X105322857Y-118788328D01*
X105322857Y-118788328D02*
X105537143Y-118716900D01*
X105537143Y-118716900D02*
X105608571Y-118645471D01*
X105608571Y-118645471D02*
X105608571Y-118145471D01*
X105608571Y-118145471D02*
X105322857Y-118145471D01*
X106251428Y-118788328D02*
X106251428Y-117288328D01*
X106251428Y-117288328D02*
X107108571Y-118788328D01*
X107108571Y-118788328D02*
X107108571Y-117288328D01*
X107822857Y-118788328D02*
X107822857Y-117288328D01*
X107822857Y-117288328D02*
X108180000Y-117288328D01*
X108180000Y-117288328D02*
X108394286Y-117359757D01*
X108394286Y-117359757D02*
X108537143Y-117502614D01*
X108537143Y-117502614D02*
X108608572Y-117645471D01*
X108608572Y-117645471D02*
X108680000Y-117931185D01*
X108680000Y-117931185D02*
X108680000Y-118145471D01*
X108680000Y-118145471D02*
X108608572Y-118431185D01*
X108608572Y-118431185D02*
X108537143Y-118574042D01*
X108537143Y-118574042D02*
X108394286Y-118716900D01*
X108394286Y-118716900D02*
X108180000Y-118788328D01*
X108180000Y-118788328D02*
X107822857Y-118788328D01*
D13*
X106432418Y-60994962D02*
X106289561Y-60923533D01*
X106289561Y-60923533D02*
X106075275Y-60923533D01*
X106075275Y-60923533D02*
X105860989Y-60994962D01*
X105860989Y-60994962D02*
X105718132Y-61137819D01*
X105718132Y-61137819D02*
X105646703Y-61280676D01*
X105646703Y-61280676D02*
X105575275Y-61566390D01*
X105575275Y-61566390D02*
X105575275Y-61780676D01*
X105575275Y-61780676D02*
X105646703Y-62066390D01*
X105646703Y-62066390D02*
X105718132Y-62209247D01*
X105718132Y-62209247D02*
X105860989Y-62352105D01*
X105860989Y-62352105D02*
X106075275Y-62423533D01*
X106075275Y-62423533D02*
X106218132Y-62423533D01*
X106218132Y-62423533D02*
X106432418Y-62352105D01*
X106432418Y-62352105D02*
X106503846Y-62280676D01*
X106503846Y-62280676D02*
X106503846Y-61780676D01*
X106503846Y-61780676D02*
X106218132Y-61780676D01*
X107146703Y-62423533D02*
X107146703Y-60923533D01*
X107146703Y-60923533D02*
X108003846Y-62423533D01*
X108003846Y-62423533D02*
X108003846Y-60923533D01*
X108718132Y-62423533D02*
X108718132Y-60923533D01*
X108718132Y-60923533D02*
X109075275Y-60923533D01*
X109075275Y-60923533D02*
X109289561Y-60994962D01*
X109289561Y-60994962D02*
X109432418Y-61137819D01*
X109432418Y-61137819D02*
X109503847Y-61280676D01*
X109503847Y-61280676D02*
X109575275Y-61566390D01*
X109575275Y-61566390D02*
X109575275Y-61780676D01*
X109575275Y-61780676D02*
X109503847Y-62066390D01*
X109503847Y-62066390D02*
X109432418Y-62209247D01*
X109432418Y-62209247D02*
X109289561Y-62352105D01*
X109289561Y-62352105D02*
X109075275Y-62423533D01*
X109075275Y-62423533D02*
X108718132Y-62423533D01*
D10*
X163541810Y-121792633D02*
X164779905Y-121792633D01*
X164779905Y-121792633D02*
X164113238Y-122554537D01*
X164113238Y-122554537D02*
X164398953Y-122554537D01*
X164398953Y-122554537D02*
X164589429Y-122649775D01*
X164589429Y-122649775D02*
X164684667Y-122745014D01*
X164684667Y-122745014D02*
X164779905Y-122935490D01*
X164779905Y-122935490D02*
X164779905Y-123411680D01*
X164779905Y-123411680D02*
X164684667Y-123602156D01*
X164684667Y-123602156D02*
X164589429Y-123697395D01*
X164589429Y-123697395D02*
X164398953Y-123792633D01*
X164398953Y-123792633D02*
X163827524Y-123792633D01*
X163827524Y-123792633D02*
X163637048Y-123697395D01*
X163637048Y-123697395D02*
X163541810Y-123602156D01*
X166303715Y-122745014D02*
X166589429Y-122840252D01*
X166589429Y-122840252D02*
X166684667Y-122935490D01*
X166684667Y-122935490D02*
X166779905Y-123125966D01*
X166779905Y-123125966D02*
X166779905Y-123411680D01*
X166779905Y-123411680D02*
X166684667Y-123602156D01*
X166684667Y-123602156D02*
X166589429Y-123697395D01*
X166589429Y-123697395D02*
X166398953Y-123792633D01*
X166398953Y-123792633D02*
X165637048Y-123792633D01*
X165637048Y-123792633D02*
X165637048Y-121792633D01*
X165637048Y-121792633D02*
X166303715Y-121792633D01*
X166303715Y-121792633D02*
X166494191Y-121887871D01*
X166494191Y-121887871D02*
X166589429Y-121983109D01*
X166589429Y-121983109D02*
X166684667Y-122173585D01*
X166684667Y-122173585D02*
X166684667Y-122364061D01*
X166684667Y-122364061D02*
X166589429Y-122554537D01*
X166589429Y-122554537D02*
X166494191Y-122649775D01*
X166494191Y-122649775D02*
X166303715Y-122745014D01*
X166303715Y-122745014D02*
X165637048Y-122745014D01*
X187449429Y-122459299D02*
X187449429Y-123792633D01*
X186973238Y-121697395D02*
X186497048Y-123125966D01*
X186497048Y-123125966D02*
X187735143Y-123125966D01*
X189163715Y-122745014D02*
X189449429Y-122840252D01*
X189449429Y-122840252D02*
X189544667Y-122935490D01*
X189544667Y-122935490D02*
X189639905Y-123125966D01*
X189639905Y-123125966D02*
X189639905Y-123411680D01*
X189639905Y-123411680D02*
X189544667Y-123602156D01*
X189544667Y-123602156D02*
X189449429Y-123697395D01*
X189449429Y-123697395D02*
X189258953Y-123792633D01*
X189258953Y-123792633D02*
X188497048Y-123792633D01*
X188497048Y-123792633D02*
X188497048Y-121792633D01*
X188497048Y-121792633D02*
X189163715Y-121792633D01*
X189163715Y-121792633D02*
X189354191Y-121887871D01*
X189354191Y-121887871D02*
X189449429Y-121983109D01*
X189449429Y-121983109D02*
X189544667Y-122173585D01*
X189544667Y-122173585D02*
X189544667Y-122364061D01*
X189544667Y-122364061D02*
X189449429Y-122554537D01*
X189449429Y-122554537D02*
X189354191Y-122649775D01*
X189354191Y-122649775D02*
X189163715Y-122745014D01*
X189163715Y-122745014D02*
X188497048Y-122745014D01*
D14*
X161138082Y-85732257D02*
X161852368Y-85732257D01*
X160995225Y-86160828D02*
X161495225Y-84660828D01*
X161495225Y-84660828D02*
X161995225Y-86160828D01*
X162495224Y-86160828D02*
X162495224Y-84660828D01*
X162495224Y-84660828D02*
X162852367Y-84660828D01*
X162852367Y-84660828D02*
X163066653Y-84732257D01*
X163066653Y-84732257D02*
X163209510Y-84875114D01*
X163209510Y-84875114D02*
X163280939Y-85017971D01*
X163280939Y-85017971D02*
X163352367Y-85303685D01*
X163352367Y-85303685D02*
X163352367Y-85517971D01*
X163352367Y-85517971D02*
X163280939Y-85803685D01*
X163280939Y-85803685D02*
X163209510Y-85946542D01*
X163209510Y-85946542D02*
X163066653Y-86089400D01*
X163066653Y-86089400D02*
X162852367Y-86160828D01*
X162852367Y-86160828D02*
X162495224Y-86160828D01*
X163923796Y-85732257D02*
X164638082Y-85732257D01*
X163780939Y-86160828D02*
X164280939Y-84660828D01*
X164280939Y-84660828D02*
X164780939Y-86160828D01*
X165780938Y-85375114D02*
X165280938Y-85375114D01*
X165280938Y-86160828D02*
X165280938Y-84660828D01*
X165280938Y-84660828D02*
X165995224Y-84660828D01*
X167423795Y-86160828D02*
X166923795Y-85446542D01*
X166566652Y-86160828D02*
X166566652Y-84660828D01*
X166566652Y-84660828D02*
X167138081Y-84660828D01*
X167138081Y-84660828D02*
X167280938Y-84732257D01*
X167280938Y-84732257D02*
X167352367Y-84803685D01*
X167352367Y-84803685D02*
X167423795Y-84946542D01*
X167423795Y-84946542D02*
X167423795Y-85160828D01*
X167423795Y-85160828D02*
X167352367Y-85303685D01*
X167352367Y-85303685D02*
X167280938Y-85375114D01*
X167280938Y-85375114D02*
X167138081Y-85446542D01*
X167138081Y-85446542D02*
X166566652Y-85446542D01*
X168066652Y-84660828D02*
X168066652Y-85875114D01*
X168066652Y-85875114D02*
X168138081Y-86017971D01*
X168138081Y-86017971D02*
X168209510Y-86089400D01*
X168209510Y-86089400D02*
X168352367Y-86160828D01*
X168352367Y-86160828D02*
X168638081Y-86160828D01*
X168638081Y-86160828D02*
X168780938Y-86089400D01*
X168780938Y-86089400D02*
X168852367Y-86017971D01*
X168852367Y-86017971D02*
X168923795Y-85875114D01*
X168923795Y-85875114D02*
X168923795Y-84660828D01*
X169638081Y-86160828D02*
X169638081Y-84660828D01*
X170138082Y-84660828D02*
X170995225Y-84660828D01*
X170566653Y-86160828D02*
X170566653Y-84660828D01*
X173138081Y-85375114D02*
X172638081Y-85375114D01*
X172638081Y-86160828D02*
X172638081Y-84660828D01*
X172638081Y-84660828D02*
X173352367Y-84660828D01*
X173923795Y-85375114D02*
X174423795Y-85375114D01*
X174638081Y-86160828D02*
X173923795Y-86160828D01*
X173923795Y-86160828D02*
X173923795Y-84660828D01*
X173923795Y-84660828D02*
X174638081Y-84660828D01*
X175209510Y-85732257D02*
X175923796Y-85732257D01*
X175066653Y-86160828D02*
X175566653Y-84660828D01*
X175566653Y-84660828D02*
X176066653Y-86160828D01*
X176352367Y-84660828D02*
X177209510Y-84660828D01*
X176780938Y-86160828D02*
X176780938Y-84660828D01*
X177709509Y-86160828D02*
X177709509Y-84660828D01*
X177709509Y-85375114D02*
X178566652Y-85375114D01*
X178566652Y-86160828D02*
X178566652Y-84660828D01*
X179280938Y-85375114D02*
X179780938Y-85375114D01*
X179995224Y-86160828D02*
X179280938Y-86160828D01*
X179280938Y-86160828D02*
X179280938Y-84660828D01*
X179280938Y-84660828D02*
X179995224Y-84660828D01*
X181495224Y-86160828D02*
X180995224Y-85446542D01*
X180638081Y-86160828D02*
X180638081Y-84660828D01*
X180638081Y-84660828D02*
X181209510Y-84660828D01*
X181209510Y-84660828D02*
X181352367Y-84732257D01*
X181352367Y-84732257D02*
X181423796Y-84803685D01*
X181423796Y-84803685D02*
X181495224Y-84946542D01*
X181495224Y-84946542D02*
X181495224Y-85160828D01*
X181495224Y-85160828D02*
X181423796Y-85303685D01*
X181423796Y-85303685D02*
X181352367Y-85375114D01*
X181352367Y-85375114D02*
X181209510Y-85446542D01*
X181209510Y-85446542D02*
X180638081Y-85446542D01*
X183923796Y-85160828D02*
X183923796Y-86160828D01*
X183280938Y-85160828D02*
X183280938Y-85946542D01*
X183280938Y-85946542D02*
X183352367Y-86089400D01*
X183352367Y-86089400D02*
X183495224Y-86160828D01*
X183495224Y-86160828D02*
X183709510Y-86160828D01*
X183709510Y-86160828D02*
X183852367Y-86089400D01*
X183852367Y-86089400D02*
X183923796Y-86017971D01*
X185495224Y-86017971D02*
X185423796Y-86089400D01*
X185423796Y-86089400D02*
X185209510Y-86160828D01*
X185209510Y-86160828D02*
X185066653Y-86160828D01*
X185066653Y-86160828D02*
X184852367Y-86089400D01*
X184852367Y-86089400D02*
X184709510Y-85946542D01*
X184709510Y-85946542D02*
X184638081Y-85803685D01*
X184638081Y-85803685D02*
X184566653Y-85517971D01*
X184566653Y-85517971D02*
X184566653Y-85303685D01*
X184566653Y-85303685D02*
X184638081Y-85017971D01*
X184638081Y-85017971D02*
X184709510Y-84875114D01*
X184709510Y-84875114D02*
X184852367Y-84732257D01*
X184852367Y-84732257D02*
X185066653Y-84660828D01*
X185066653Y-84660828D02*
X185209510Y-84660828D01*
X185209510Y-84660828D02*
X185423796Y-84732257D01*
X185423796Y-84732257D02*
X185495224Y-84803685D01*
D10*
X112850851Y-61451380D02*
X112660375Y-61356142D01*
X112660375Y-61356142D02*
X112565137Y-61260904D01*
X112565137Y-61260904D02*
X112469899Y-61070428D01*
X112469899Y-61070428D02*
X112469899Y-60975190D01*
X112469899Y-60975190D02*
X112565137Y-60784714D01*
X112565137Y-60784714D02*
X112660375Y-60689476D01*
X112660375Y-60689476D02*
X112850851Y-60594238D01*
X112850851Y-60594238D02*
X113231804Y-60594238D01*
X113231804Y-60594238D02*
X113422280Y-60689476D01*
X113422280Y-60689476D02*
X113517518Y-60784714D01*
X113517518Y-60784714D02*
X113612756Y-60975190D01*
X113612756Y-60975190D02*
X113612756Y-61070428D01*
X113612756Y-61070428D02*
X113517518Y-61260904D01*
X113517518Y-61260904D02*
X113422280Y-61356142D01*
X113422280Y-61356142D02*
X113231804Y-61451380D01*
X113231804Y-61451380D02*
X112850851Y-61451380D01*
X112850851Y-61451380D02*
X112660375Y-61546619D01*
X112660375Y-61546619D02*
X112565137Y-61641857D01*
X112565137Y-61641857D02*
X112469899Y-61832333D01*
X112469899Y-61832333D02*
X112469899Y-62213285D01*
X112469899Y-62213285D02*
X112565137Y-62403761D01*
X112565137Y-62403761D02*
X112660375Y-62499000D01*
X112660375Y-62499000D02*
X112850851Y-62594238D01*
X112850851Y-62594238D02*
X113231804Y-62594238D01*
X113231804Y-62594238D02*
X113422280Y-62499000D01*
X113422280Y-62499000D02*
X113517518Y-62403761D01*
X113517518Y-62403761D02*
X113612756Y-62213285D01*
X113612756Y-62213285D02*
X113612756Y-61832333D01*
X113612756Y-61832333D02*
X113517518Y-61641857D01*
X113517518Y-61641857D02*
X113422280Y-61546619D01*
X113422280Y-61546619D02*
X113231804Y-61451380D01*
X114374661Y-62022809D02*
X115327042Y-62022809D01*
X114184185Y-62594238D02*
X114850851Y-60594238D01*
X114850851Y-60594238D02*
X115517518Y-62594238D01*
D13*
X106164567Y-122193357D02*
X106021710Y-122121928D01*
X106021710Y-122121928D02*
X105807424Y-122121928D01*
X105807424Y-122121928D02*
X105593138Y-122193357D01*
X105593138Y-122193357D02*
X105450281Y-122336214D01*
X105450281Y-122336214D02*
X105378852Y-122479071D01*
X105378852Y-122479071D02*
X105307424Y-122764785D01*
X105307424Y-122764785D02*
X105307424Y-122979071D01*
X105307424Y-122979071D02*
X105378852Y-123264785D01*
X105378852Y-123264785D02*
X105450281Y-123407642D01*
X105450281Y-123407642D02*
X105593138Y-123550500D01*
X105593138Y-123550500D02*
X105807424Y-123621928D01*
X105807424Y-123621928D02*
X105950281Y-123621928D01*
X105950281Y-123621928D02*
X106164567Y-123550500D01*
X106164567Y-123550500D02*
X106235995Y-123479071D01*
X106235995Y-123479071D02*
X106235995Y-122979071D01*
X106235995Y-122979071D02*
X105950281Y-122979071D01*
X106878852Y-123621928D02*
X106878852Y-122121928D01*
X106878852Y-122121928D02*
X107735995Y-123621928D01*
X107735995Y-123621928D02*
X107735995Y-122121928D01*
X108450281Y-123621928D02*
X108450281Y-122121928D01*
X108450281Y-122121928D02*
X108807424Y-122121928D01*
X108807424Y-122121928D02*
X109021710Y-122193357D01*
X109021710Y-122193357D02*
X109164567Y-122336214D01*
X109164567Y-122336214D02*
X109235996Y-122479071D01*
X109235996Y-122479071D02*
X109307424Y-122764785D01*
X109307424Y-122764785D02*
X109307424Y-122979071D01*
X109307424Y-122979071D02*
X109235996Y-123264785D01*
X109235996Y-123264785D02*
X109164567Y-123407642D01*
X109164567Y-123407642D02*
X109021710Y-123550500D01*
X109021710Y-123550500D02*
X108807424Y-123621928D01*
X108807424Y-123621928D02*
X108450281Y-123621928D01*
D15*
X191436666Y-57874663D02*
X191436666Y-58588948D01*
X191436666Y-58588948D02*
X191389047Y-58731805D01*
X191389047Y-58731805D02*
X191293809Y-58827044D01*
X191293809Y-58827044D02*
X191150952Y-58874663D01*
X191150952Y-58874663D02*
X191055714Y-58874663D01*
X192341428Y-57874663D02*
X192150952Y-57874663D01*
X192150952Y-57874663D02*
X192055714Y-57922282D01*
X192055714Y-57922282D02*
X192008095Y-57969901D01*
X192008095Y-57969901D02*
X191912857Y-58112758D01*
X191912857Y-58112758D02*
X191865238Y-58303234D01*
X191865238Y-58303234D02*
X191865238Y-58684186D01*
X191865238Y-58684186D02*
X191912857Y-58779424D01*
X191912857Y-58779424D02*
X191960476Y-58827044D01*
X191960476Y-58827044D02*
X192055714Y-58874663D01*
X192055714Y-58874663D02*
X192246190Y-58874663D01*
X192246190Y-58874663D02*
X192341428Y-58827044D01*
X192341428Y-58827044D02*
X192389047Y-58779424D01*
X192389047Y-58779424D02*
X192436666Y-58684186D01*
X192436666Y-58684186D02*
X192436666Y-58446091D01*
X192436666Y-58446091D02*
X192389047Y-58350853D01*
X192389047Y-58350853D02*
X192341428Y-58303234D01*
X192341428Y-58303234D02*
X192246190Y-58255615D01*
X192246190Y-58255615D02*
X192055714Y-58255615D01*
X192055714Y-58255615D02*
X191960476Y-58303234D01*
X191960476Y-58303234D02*
X191912857Y-58350853D01*
X191912857Y-58350853D02*
X191865238Y-58446091D01*
X126537948Y-118506312D02*
X126204615Y-118506312D01*
X126204615Y-119030122D02*
X126204615Y-118030122D01*
X126204615Y-118030122D02*
X126680805Y-118030122D01*
X127585567Y-119030122D02*
X127014139Y-119030122D01*
X127299853Y-119030122D02*
X127299853Y-118030122D01*
X127299853Y-118030122D02*
X127204615Y-118172979D01*
X127204615Y-118172979D02*
X127109377Y-118268217D01*
X127109377Y-118268217D02*
X127014139Y-118315836D01*
X95758095Y-140154663D02*
X95758095Y-139154663D01*
X95758095Y-139630853D02*
X96329523Y-139630853D01*
X96329523Y-140154663D02*
X96329523Y-139154663D01*
X97234285Y-139487996D02*
X97234285Y-140154663D01*
X96996190Y-139107044D02*
X96758095Y-139821329D01*
X96758095Y-139821329D02*
X97377142Y-139821329D01*
X131953095Y-112484663D02*
X131953095Y-113294186D01*
X131953095Y-113294186D02*
X132000714Y-113389424D01*
X132000714Y-113389424D02*
X132048333Y-113437044D01*
X132048333Y-113437044D02*
X132143571Y-113484663D01*
X132143571Y-113484663D02*
X132334047Y-113484663D01*
X132334047Y-113484663D02*
X132429285Y-113437044D01*
X132429285Y-113437044D02*
X132476904Y-113389424D01*
X132476904Y-113389424D02*
X132524523Y-113294186D01*
X132524523Y-113294186D02*
X132524523Y-112484663D01*
X133524523Y-113484663D02*
X132953095Y-113484663D01*
X133238809Y-113484663D02*
X133238809Y-112484663D01*
X133238809Y-112484663D02*
X133143571Y-112627520D01*
X133143571Y-112627520D02*
X133048333Y-112722758D01*
X133048333Y-112722758D02*
X132953095Y-112770377D01*
X93378102Y-108535820D02*
X93378102Y-109250105D01*
X93378102Y-109250105D02*
X93330483Y-109392962D01*
X93330483Y-109392962D02*
X93235245Y-109488201D01*
X93235245Y-109488201D02*
X93092388Y-109535820D01*
X93092388Y-109535820D02*
X92997150Y-109535820D01*
X94378102Y-109535820D02*
X93806674Y-109535820D01*
X94092388Y-109535820D02*
X94092388Y-108535820D01*
X94092388Y-108535820D02*
X93997150Y-108678677D01*
X93997150Y-108678677D02*
X93901912Y-108773915D01*
X93901912Y-108773915D02*
X93806674Y-108821534D01*
X94997150Y-108535820D02*
X95092388Y-108535820D01*
X95092388Y-108535820D02*
X95187626Y-108583439D01*
X95187626Y-108583439D02*
X95235245Y-108631058D01*
X95235245Y-108631058D02*
X95282864Y-108726296D01*
X95282864Y-108726296D02*
X95330483Y-108916772D01*
X95330483Y-108916772D02*
X95330483Y-109154867D01*
X95330483Y-109154867D02*
X95282864Y-109345343D01*
X95282864Y-109345343D02*
X95235245Y-109440581D01*
X95235245Y-109440581D02*
X95187626Y-109488201D01*
X95187626Y-109488201D02*
X95092388Y-109535820D01*
X95092388Y-109535820D02*
X94997150Y-109535820D01*
X94997150Y-109535820D02*
X94901912Y-109488201D01*
X94901912Y-109488201D02*
X94854293Y-109440581D01*
X94854293Y-109440581D02*
X94806674Y-109345343D01*
X94806674Y-109345343D02*
X94759055Y-109154867D01*
X94759055Y-109154867D02*
X94759055Y-108916772D01*
X94759055Y-108916772D02*
X94806674Y-108726296D01*
X94806674Y-108726296D02*
X94854293Y-108631058D01*
X94854293Y-108631058D02*
X94901912Y-108583439D01*
X94901912Y-108583439D02*
X94997150Y-108535820D01*
X191436666Y-141694663D02*
X191436666Y-142408948D01*
X191436666Y-142408948D02*
X191389047Y-142551805D01*
X191389047Y-142551805D02*
X191293809Y-142647044D01*
X191293809Y-142647044D02*
X191150952Y-142694663D01*
X191150952Y-142694663D02*
X191055714Y-142694663D01*
X192389047Y-141694663D02*
X191912857Y-141694663D01*
X191912857Y-141694663D02*
X191865238Y-142170853D01*
X191865238Y-142170853D02*
X191912857Y-142123234D01*
X191912857Y-142123234D02*
X192008095Y-142075615D01*
X192008095Y-142075615D02*
X192246190Y-142075615D01*
X192246190Y-142075615D02*
X192341428Y-142123234D01*
X192341428Y-142123234D02*
X192389047Y-142170853D01*
X192389047Y-142170853D02*
X192436666Y-142266091D01*
X192436666Y-142266091D02*
X192436666Y-142504186D01*
X192436666Y-142504186D02*
X192389047Y-142599424D01*
X192389047Y-142599424D02*
X192341428Y-142647044D01*
X192341428Y-142647044D02*
X192246190Y-142694663D01*
X192246190Y-142694663D02*
X192008095Y-142694663D01*
X192008095Y-142694663D02*
X191912857Y-142647044D01*
X191912857Y-142647044D02*
X191865238Y-142599424D01*
X197358095Y-53794663D02*
X197358095Y-52794663D01*
X197358095Y-53270853D02*
X197929523Y-53270853D01*
X197929523Y-53794663D02*
X197929523Y-52794663D01*
X198358095Y-52889901D02*
X198405714Y-52842282D01*
X198405714Y-52842282D02*
X198500952Y-52794663D01*
X198500952Y-52794663D02*
X198739047Y-52794663D01*
X198739047Y-52794663D02*
X198834285Y-52842282D01*
X198834285Y-52842282D02*
X198881904Y-52889901D01*
X198881904Y-52889901D02*
X198929523Y-52985139D01*
X198929523Y-52985139D02*
X198929523Y-53080377D01*
X198929523Y-53080377D02*
X198881904Y-53223234D01*
X198881904Y-53223234D02*
X198310476Y-53794663D01*
X198310476Y-53794663D02*
X198929523Y-53794663D01*
X155495714Y-97958948D02*
X155971904Y-97958948D01*
X155400476Y-98244663D02*
X155733809Y-97244663D01*
X155733809Y-97244663D02*
X156067142Y-98244663D01*
X156305238Y-97244663D02*
X156924285Y-97244663D01*
X156924285Y-97244663D02*
X156590952Y-97625615D01*
X156590952Y-97625615D02*
X156733809Y-97625615D01*
X156733809Y-97625615D02*
X156829047Y-97673234D01*
X156829047Y-97673234D02*
X156876666Y-97720853D01*
X156876666Y-97720853D02*
X156924285Y-97816091D01*
X156924285Y-97816091D02*
X156924285Y-98054186D01*
X156924285Y-98054186D02*
X156876666Y-98149424D01*
X156876666Y-98149424D02*
X156829047Y-98197044D01*
X156829047Y-98197044D02*
X156733809Y-98244663D01*
X156733809Y-98244663D02*
X156448095Y-98244663D01*
X156448095Y-98244663D02*
X156352857Y-98197044D01*
X156352857Y-98197044D02*
X156305238Y-98149424D01*
X181443333Y-118564663D02*
X181110000Y-118088472D01*
X180871905Y-118564663D02*
X180871905Y-117564663D01*
X180871905Y-117564663D02*
X181252857Y-117564663D01*
X181252857Y-117564663D02*
X181348095Y-117612282D01*
X181348095Y-117612282D02*
X181395714Y-117659901D01*
X181395714Y-117659901D02*
X181443333Y-117755139D01*
X181443333Y-117755139D02*
X181443333Y-117897996D01*
X181443333Y-117897996D02*
X181395714Y-117993234D01*
X181395714Y-117993234D02*
X181348095Y-118040853D01*
X181348095Y-118040853D02*
X181252857Y-118088472D01*
X181252857Y-118088472D02*
X180871905Y-118088472D01*
X182395714Y-118564663D02*
X181824286Y-118564663D01*
X182110000Y-118564663D02*
X182110000Y-117564663D01*
X182110000Y-117564663D02*
X182014762Y-117707520D01*
X182014762Y-117707520D02*
X181919524Y-117802758D01*
X181919524Y-117802758D02*
X181824286Y-117850377D01*
X122856666Y-57874663D02*
X122856666Y-58588948D01*
X122856666Y-58588948D02*
X122809047Y-58731805D01*
X122809047Y-58731805D02*
X122713809Y-58827044D01*
X122713809Y-58827044D02*
X122570952Y-58874663D01*
X122570952Y-58874663D02*
X122475714Y-58874663D01*
X123380476Y-58874663D02*
X123570952Y-58874663D01*
X123570952Y-58874663D02*
X123666190Y-58827044D01*
X123666190Y-58827044D02*
X123713809Y-58779424D01*
X123713809Y-58779424D02*
X123809047Y-58636567D01*
X123809047Y-58636567D02*
X123856666Y-58446091D01*
X123856666Y-58446091D02*
X123856666Y-58065139D01*
X123856666Y-58065139D02*
X123809047Y-57969901D01*
X123809047Y-57969901D02*
X123761428Y-57922282D01*
X123761428Y-57922282D02*
X123666190Y-57874663D01*
X123666190Y-57874663D02*
X123475714Y-57874663D01*
X123475714Y-57874663D02*
X123380476Y-57922282D01*
X123380476Y-57922282D02*
X123332857Y-57969901D01*
X123332857Y-57969901D02*
X123285238Y-58065139D01*
X123285238Y-58065139D02*
X123285238Y-58303234D01*
X123285238Y-58303234D02*
X123332857Y-58398472D01*
X123332857Y-58398472D02*
X123380476Y-58446091D01*
X123380476Y-58446091D02*
X123475714Y-58493710D01*
X123475714Y-58493710D02*
X123666190Y-58493710D01*
X123666190Y-58493710D02*
X123761428Y-58446091D01*
X123761428Y-58446091D02*
X123809047Y-58398472D01*
X123809047Y-58398472D02*
X123856666Y-58303234D01*
X194462595Y-109389368D02*
X194605452Y-109436987D01*
X194605452Y-109436987D02*
X194843547Y-109436987D01*
X194843547Y-109436987D02*
X194938785Y-109389368D01*
X194938785Y-109389368D02*
X194986404Y-109341748D01*
X194986404Y-109341748D02*
X195034023Y-109246510D01*
X195034023Y-109246510D02*
X195034023Y-109151272D01*
X195034023Y-109151272D02*
X194986404Y-109056034D01*
X194986404Y-109056034D02*
X194938785Y-109008415D01*
X194938785Y-109008415D02*
X194843547Y-108960796D01*
X194843547Y-108960796D02*
X194653071Y-108913177D01*
X194653071Y-108913177D02*
X194557833Y-108865558D01*
X194557833Y-108865558D02*
X194510214Y-108817939D01*
X194510214Y-108817939D02*
X194462595Y-108722701D01*
X194462595Y-108722701D02*
X194462595Y-108627463D01*
X194462595Y-108627463D02*
X194510214Y-108532225D01*
X194510214Y-108532225D02*
X194557833Y-108484606D01*
X194557833Y-108484606D02*
X194653071Y-108436987D01*
X194653071Y-108436987D02*
X194891166Y-108436987D01*
X194891166Y-108436987D02*
X195034023Y-108484606D01*
X195367357Y-108436987D02*
X195605452Y-109436987D01*
X195605452Y-109436987D02*
X195795928Y-108722701D01*
X195795928Y-108722701D02*
X195986404Y-109436987D01*
X195986404Y-109436987D02*
X196224500Y-108436987D01*
X197129261Y-109436987D02*
X196557833Y-109436987D01*
X196843547Y-109436987D02*
X196843547Y-108436987D01*
X196843547Y-108436987D02*
X196748309Y-108579844D01*
X196748309Y-108579844D02*
X196653071Y-108675082D01*
X196653071Y-108675082D02*
X196557833Y-108722701D01*
X145716666Y-57874663D02*
X145716666Y-58588948D01*
X145716666Y-58588948D02*
X145669047Y-58731805D01*
X145669047Y-58731805D02*
X145573809Y-58827044D01*
X145573809Y-58827044D02*
X145430952Y-58874663D01*
X145430952Y-58874663D02*
X145335714Y-58874663D01*
X146335714Y-58303234D02*
X146240476Y-58255615D01*
X146240476Y-58255615D02*
X146192857Y-58207996D01*
X146192857Y-58207996D02*
X146145238Y-58112758D01*
X146145238Y-58112758D02*
X146145238Y-58065139D01*
X146145238Y-58065139D02*
X146192857Y-57969901D01*
X146192857Y-57969901D02*
X146240476Y-57922282D01*
X146240476Y-57922282D02*
X146335714Y-57874663D01*
X146335714Y-57874663D02*
X146526190Y-57874663D01*
X146526190Y-57874663D02*
X146621428Y-57922282D01*
X146621428Y-57922282D02*
X146669047Y-57969901D01*
X146669047Y-57969901D02*
X146716666Y-58065139D01*
X146716666Y-58065139D02*
X146716666Y-58112758D01*
X146716666Y-58112758D02*
X146669047Y-58207996D01*
X146669047Y-58207996D02*
X146621428Y-58255615D01*
X146621428Y-58255615D02*
X146526190Y-58303234D01*
X146526190Y-58303234D02*
X146335714Y-58303234D01*
X146335714Y-58303234D02*
X146240476Y-58350853D01*
X146240476Y-58350853D02*
X146192857Y-58398472D01*
X146192857Y-58398472D02*
X146145238Y-58493710D01*
X146145238Y-58493710D02*
X146145238Y-58684186D01*
X146145238Y-58684186D02*
X146192857Y-58779424D01*
X146192857Y-58779424D02*
X146240476Y-58827044D01*
X146240476Y-58827044D02*
X146335714Y-58874663D01*
X146335714Y-58874663D02*
X146526190Y-58874663D01*
X146526190Y-58874663D02*
X146621428Y-58827044D01*
X146621428Y-58827044D02*
X146669047Y-58779424D01*
X146669047Y-58779424D02*
X146716666Y-58684186D01*
X146716666Y-58684186D02*
X146716666Y-58493710D01*
X146716666Y-58493710D02*
X146669047Y-58398472D01*
X146669047Y-58398472D02*
X146621428Y-58350853D01*
X146621428Y-58350853D02*
X146526190Y-58303234D01*
X142819523Y-103324663D02*
X142486190Y-102848472D01*
X142248095Y-103324663D02*
X142248095Y-102324663D01*
X142248095Y-102324663D02*
X142629047Y-102324663D01*
X142629047Y-102324663D02*
X142724285Y-102372282D01*
X142724285Y-102372282D02*
X142771904Y-102419901D01*
X142771904Y-102419901D02*
X142819523Y-102515139D01*
X142819523Y-102515139D02*
X142819523Y-102657996D01*
X142819523Y-102657996D02*
X142771904Y-102753234D01*
X142771904Y-102753234D02*
X142724285Y-102800853D01*
X142724285Y-102800853D02*
X142629047Y-102848472D01*
X142629047Y-102848472D02*
X142248095Y-102848472D01*
X143248095Y-103324663D02*
X143248095Y-102324663D01*
X143248095Y-102324663D02*
X143819523Y-103324663D01*
X143819523Y-103324663D02*
X143819523Y-102324663D01*
X144819523Y-103324663D02*
X144248095Y-103324663D01*
X144533809Y-103324663D02*
X144533809Y-102324663D01*
X144533809Y-102324663D02*
X144438571Y-102467520D01*
X144438571Y-102467520D02*
X144343333Y-102562758D01*
X144343333Y-102562758D02*
X144248095Y-102610377D01*
X168576666Y-141694663D02*
X168576666Y-142408948D01*
X168576666Y-142408948D02*
X168529047Y-142551805D01*
X168529047Y-142551805D02*
X168433809Y-142647044D01*
X168433809Y-142647044D02*
X168290952Y-142694663D01*
X168290952Y-142694663D02*
X168195714Y-142694663D01*
X169481428Y-142027996D02*
X169481428Y-142694663D01*
X169243333Y-141647044D02*
X169005238Y-142361329D01*
X169005238Y-142361329D02*
X169624285Y-142361329D01*
X95758095Y-53794663D02*
X95758095Y-52794663D01*
X95758095Y-53270853D02*
X96329523Y-53270853D01*
X96329523Y-53794663D02*
X96329523Y-52794663D01*
X97329523Y-53794663D02*
X96758095Y-53794663D01*
X97043809Y-53794663D02*
X97043809Y-52794663D01*
X97043809Y-52794663D02*
X96948571Y-52937520D01*
X96948571Y-52937520D02*
X96853333Y-53032758D01*
X96853333Y-53032758D02*
X96758095Y-53080377D01*
X168576666Y-57874663D02*
X168576666Y-58588948D01*
X168576666Y-58588948D02*
X168529047Y-58731805D01*
X168529047Y-58731805D02*
X168433809Y-58827044D01*
X168433809Y-58827044D02*
X168290952Y-58874663D01*
X168290952Y-58874663D02*
X168195714Y-58874663D01*
X168957619Y-57874663D02*
X169624285Y-57874663D01*
X169624285Y-57874663D02*
X169195714Y-58874663D01*
X122428322Y-120104663D02*
X122428322Y-120914186D01*
X122428322Y-120914186D02*
X122475941Y-121009424D01*
X122475941Y-121009424D02*
X122523560Y-121057044D01*
X122523560Y-121057044D02*
X122618798Y-121104663D01*
X122618798Y-121104663D02*
X122809274Y-121104663D01*
X122809274Y-121104663D02*
X122904512Y-121057044D01*
X122904512Y-121057044D02*
X122952131Y-121009424D01*
X122952131Y-121009424D02*
X122999750Y-120914186D01*
X122999750Y-120914186D02*
X122999750Y-120104663D01*
X123428322Y-120199901D02*
X123475941Y-120152282D01*
X123475941Y-120152282D02*
X123571179Y-120104663D01*
X123571179Y-120104663D02*
X123809274Y-120104663D01*
X123809274Y-120104663D02*
X123904512Y-120152282D01*
X123904512Y-120152282D02*
X123952131Y-120199901D01*
X123952131Y-120199901D02*
X123999750Y-120295139D01*
X123999750Y-120295139D02*
X123999750Y-120390377D01*
X123999750Y-120390377D02*
X123952131Y-120533234D01*
X123952131Y-120533234D02*
X123380703Y-121104663D01*
X123380703Y-121104663D02*
X123999750Y-121104663D01*
X197358095Y-140154663D02*
X197358095Y-139154663D01*
X197358095Y-139630853D02*
X197929523Y-139630853D01*
X197929523Y-140154663D02*
X197929523Y-139154663D01*
X198310476Y-139154663D02*
X198929523Y-139154663D01*
X198929523Y-139154663D02*
X198596190Y-139535615D01*
X198596190Y-139535615D02*
X198739047Y-139535615D01*
X198739047Y-139535615D02*
X198834285Y-139583234D01*
X198834285Y-139583234D02*
X198881904Y-139630853D01*
X198881904Y-139630853D02*
X198929523Y-139726091D01*
X198929523Y-139726091D02*
X198929523Y-139964186D01*
X198929523Y-139964186D02*
X198881904Y-140059424D01*
X198881904Y-140059424D02*
X198834285Y-140107044D01*
X198834285Y-140107044D02*
X198739047Y-140154663D01*
X198739047Y-140154663D02*
X198453333Y-140154663D01*
X198453333Y-140154663D02*
X198358095Y-140107044D01*
X198358095Y-140107044D02*
X198310476Y-140059424D01*
X196425054Y-121693124D02*
X196425054Y-122407409D01*
X196425054Y-122407409D02*
X196377435Y-122550266D01*
X196377435Y-122550266D02*
X196282197Y-122645505D01*
X196282197Y-122645505D02*
X196139340Y-122693124D01*
X196139340Y-122693124D02*
X196044102Y-122693124D01*
X197425054Y-122693124D02*
X196853626Y-122693124D01*
X197139340Y-122693124D02*
X197139340Y-121693124D01*
X197139340Y-121693124D02*
X197044102Y-121835981D01*
X197044102Y-121835981D02*
X196948864Y-121931219D01*
X196948864Y-121931219D02*
X196853626Y-121978838D01*
X198377435Y-122693124D02*
X197806007Y-122693124D01*
X198091721Y-122693124D02*
X198091721Y-121693124D01*
X198091721Y-121693124D02*
X197996483Y-121835981D01*
X197996483Y-121835981D02*
X197901245Y-121931219D01*
X197901245Y-121931219D02*
X197806007Y-121978838D01*
X93646666Y-95974663D02*
X93646666Y-96688948D01*
X93646666Y-96688948D02*
X93599047Y-96831805D01*
X93599047Y-96831805D02*
X93503809Y-96927044D01*
X93503809Y-96927044D02*
X93360952Y-96974663D01*
X93360952Y-96974663D02*
X93265714Y-96974663D01*
X94646666Y-96974663D02*
X94075238Y-96974663D01*
X94360952Y-96974663D02*
X94360952Y-95974663D01*
X94360952Y-95974663D02*
X94265714Y-96117520D01*
X94265714Y-96117520D02*
X94170476Y-96212758D01*
X94170476Y-96212758D02*
X94075238Y-96260377D01*
X173823333Y-118564663D02*
X173490000Y-118088472D01*
X173251905Y-118564663D02*
X173251905Y-117564663D01*
X173251905Y-117564663D02*
X173632857Y-117564663D01*
X173632857Y-117564663D02*
X173728095Y-117612282D01*
X173728095Y-117612282D02*
X173775714Y-117659901D01*
X173775714Y-117659901D02*
X173823333Y-117755139D01*
X173823333Y-117755139D02*
X173823333Y-117897996D01*
X173823333Y-117897996D02*
X173775714Y-117993234D01*
X173775714Y-117993234D02*
X173728095Y-118040853D01*
X173728095Y-118040853D02*
X173632857Y-118088472D01*
X173632857Y-118088472D02*
X173251905Y-118088472D01*
X174156667Y-117564663D02*
X174775714Y-117564663D01*
X174775714Y-117564663D02*
X174442381Y-117945615D01*
X174442381Y-117945615D02*
X174585238Y-117945615D01*
X174585238Y-117945615D02*
X174680476Y-117993234D01*
X174680476Y-117993234D02*
X174728095Y-118040853D01*
X174728095Y-118040853D02*
X174775714Y-118136091D01*
X174775714Y-118136091D02*
X174775714Y-118374186D01*
X174775714Y-118374186D02*
X174728095Y-118469424D01*
X174728095Y-118469424D02*
X174680476Y-118517044D01*
X174680476Y-118517044D02*
X174585238Y-118564663D01*
X174585238Y-118564663D02*
X174299524Y-118564663D01*
X174299524Y-118564663D02*
X174204286Y-118517044D01*
X174204286Y-118517044D02*
X174156667Y-118469424D01*
X144089523Y-121104663D02*
X143756190Y-120628472D01*
X143518095Y-121104663D02*
X143518095Y-120104663D01*
X143518095Y-120104663D02*
X143899047Y-120104663D01*
X143899047Y-120104663D02*
X143994285Y-120152282D01*
X143994285Y-120152282D02*
X144041904Y-120199901D01*
X144041904Y-120199901D02*
X144089523Y-120295139D01*
X144089523Y-120295139D02*
X144089523Y-120437996D01*
X144089523Y-120437996D02*
X144041904Y-120533234D01*
X144041904Y-120533234D02*
X143994285Y-120580853D01*
X143994285Y-120580853D02*
X143899047Y-120628472D01*
X143899047Y-120628472D02*
X143518095Y-120628472D01*
X144518095Y-121104663D02*
X144518095Y-120104663D01*
X144518095Y-120104663D02*
X145089523Y-121104663D01*
X145089523Y-121104663D02*
X145089523Y-120104663D01*
X145518095Y-120199901D02*
X145565714Y-120152282D01*
X145565714Y-120152282D02*
X145660952Y-120104663D01*
X145660952Y-120104663D02*
X145899047Y-120104663D01*
X145899047Y-120104663D02*
X145994285Y-120152282D01*
X145994285Y-120152282D02*
X146041904Y-120199901D01*
X146041904Y-120199901D02*
X146089523Y-120295139D01*
X146089523Y-120295139D02*
X146089523Y-120390377D01*
X146089523Y-120390377D02*
X146041904Y-120533234D01*
X146041904Y-120533234D02*
X145470476Y-121104663D01*
X145470476Y-121104663D02*
X146089523Y-121104663D01*
X145716666Y-141694663D02*
X145716666Y-142408948D01*
X145716666Y-142408948D02*
X145669047Y-142551805D01*
X145669047Y-142551805D02*
X145573809Y-142647044D01*
X145573809Y-142647044D02*
X145430952Y-142694663D01*
X145430952Y-142694663D02*
X145335714Y-142694663D01*
X146097619Y-141694663D02*
X146716666Y-141694663D01*
X146716666Y-141694663D02*
X146383333Y-142075615D01*
X146383333Y-142075615D02*
X146526190Y-142075615D01*
X146526190Y-142075615D02*
X146621428Y-142123234D01*
X146621428Y-142123234D02*
X146669047Y-142170853D01*
X146669047Y-142170853D02*
X146716666Y-142266091D01*
X146716666Y-142266091D02*
X146716666Y-142504186D01*
X146716666Y-142504186D02*
X146669047Y-142599424D01*
X146669047Y-142599424D02*
X146621428Y-142647044D01*
X146621428Y-142647044D02*
X146526190Y-142694663D01*
X146526190Y-142694663D02*
X146240476Y-142694663D01*
X146240476Y-142694663D02*
X146145238Y-142647044D01*
X146145238Y-142647044D02*
X146097619Y-142599424D01*
X122856666Y-141694663D02*
X122856666Y-142408948D01*
X122856666Y-142408948D02*
X122809047Y-142551805D01*
X122809047Y-142551805D02*
X122713809Y-142647044D01*
X122713809Y-142647044D02*
X122570952Y-142694663D01*
X122570952Y-142694663D02*
X122475714Y-142694663D01*
X123285238Y-141789901D02*
X123332857Y-141742282D01*
X123332857Y-141742282D02*
X123428095Y-141694663D01*
X123428095Y-141694663D02*
X123666190Y-141694663D01*
X123666190Y-141694663D02*
X123761428Y-141742282D01*
X123761428Y-141742282D02*
X123809047Y-141789901D01*
X123809047Y-141789901D02*
X123856666Y-141885139D01*
X123856666Y-141885139D02*
X123856666Y-141980377D01*
X123856666Y-141980377D02*
X123809047Y-142123234D01*
X123809047Y-142123234D02*
X123237619Y-142694663D01*
X123237619Y-142694663D02*
X123856666Y-142694663D01*
X126285714Y-97958948D02*
X126761904Y-97958948D01*
X126190476Y-98244663D02*
X126523809Y-97244663D01*
X126523809Y-97244663D02*
X126857142Y-98244663D01*
X127714285Y-98244663D02*
X127142857Y-98244663D01*
X127428571Y-98244663D02*
X127428571Y-97244663D01*
X127428571Y-97244663D02*
X127333333Y-97387520D01*
X127333333Y-97387520D02*
X127238095Y-97482758D01*
X127238095Y-97482758D02*
X127142857Y-97530377D01*
X163663333Y-118469424D02*
X163615714Y-118517044D01*
X163615714Y-118517044D02*
X163472857Y-118564663D01*
X163472857Y-118564663D02*
X163377619Y-118564663D01*
X163377619Y-118564663D02*
X163234762Y-118517044D01*
X163234762Y-118517044D02*
X163139524Y-118421805D01*
X163139524Y-118421805D02*
X163091905Y-118326567D01*
X163091905Y-118326567D02*
X163044286Y-118136091D01*
X163044286Y-118136091D02*
X163044286Y-117993234D01*
X163044286Y-117993234D02*
X163091905Y-117802758D01*
X163091905Y-117802758D02*
X163139524Y-117707520D01*
X163139524Y-117707520D02*
X163234762Y-117612282D01*
X163234762Y-117612282D02*
X163377619Y-117564663D01*
X163377619Y-117564663D02*
X163472857Y-117564663D01*
X163472857Y-117564663D02*
X163615714Y-117612282D01*
X163615714Y-117612282D02*
X163663333Y-117659901D01*
X164615714Y-118564663D02*
X164044286Y-118564663D01*
X164330000Y-118564663D02*
X164330000Y-117564663D01*
X164330000Y-117564663D02*
X164234762Y-117707520D01*
X164234762Y-117707520D02*
X164139524Y-117802758D01*
X164139524Y-117802758D02*
X164044286Y-117850377D01*
X177633333Y-118564663D02*
X177300000Y-118088472D01*
X177061905Y-118564663D02*
X177061905Y-117564663D01*
X177061905Y-117564663D02*
X177442857Y-117564663D01*
X177442857Y-117564663D02*
X177538095Y-117612282D01*
X177538095Y-117612282D02*
X177585714Y-117659901D01*
X177585714Y-117659901D02*
X177633333Y-117755139D01*
X177633333Y-117755139D02*
X177633333Y-117897996D01*
X177633333Y-117897996D02*
X177585714Y-117993234D01*
X177585714Y-117993234D02*
X177538095Y-118040853D01*
X177538095Y-118040853D02*
X177442857Y-118088472D01*
X177442857Y-118088472D02*
X177061905Y-118088472D01*
X178014286Y-117659901D02*
X178061905Y-117612282D01*
X178061905Y-117612282D02*
X178157143Y-117564663D01*
X178157143Y-117564663D02*
X178395238Y-117564663D01*
X178395238Y-117564663D02*
X178490476Y-117612282D01*
X178490476Y-117612282D02*
X178538095Y-117659901D01*
X178538095Y-117659901D02*
X178585714Y-117755139D01*
X178585714Y-117755139D02*
X178585714Y-117850377D01*
X178585714Y-117850377D02*
X178538095Y-117993234D01*
X178538095Y-117993234D02*
X177966667Y-118564663D01*
X177966667Y-118564663D02*
X178585714Y-118564663D01*
D16*
X191863969Y-54916336D02*
X191863969Y-54166336D01*
X191863969Y-54916336D02*
X191863969Y-54166336D01*
X191717522Y-53812783D02*
X188547969Y-50643229D01*
X191717522Y-53812783D02*
X188547969Y-50643229D01*
X188547969Y-58439443D02*
X191717522Y-55269889D01*
X188547969Y-58439443D02*
X191717522Y-55269889D01*
X187840862Y-50350336D02*
X183354969Y-50350336D01*
X187840862Y-50350336D02*
X183354969Y-50350336D01*
X183354969Y-58732336D02*
X187840862Y-58732336D01*
X183354969Y-58732336D02*
X187840862Y-58732336D01*
X183354969Y-58732336D02*
X179798969Y-58732336D01*
X179798969Y-50350336D02*
X183354969Y-50350336D01*
X179798969Y-50350336D02*
X173305969Y-50350336D01*
X179798969Y-50350336D02*
X173305969Y-50350336D01*
X173305969Y-58732336D02*
X179798969Y-58732336D01*
X172305969Y-51350336D02*
X172305969Y-57732336D01*
X172305969Y-51350336D02*
X172305969Y-57732336D01*
X191717522Y-55269889D02*
G75*
G03*
X191863969Y-54916336I-353545J353551D01*
G01*
X191717522Y-55269889D02*
G75*
G03*
X191863969Y-54916336I-353545J353551D01*
G01*
X191863969Y-54166336D02*
G75*
G03*
X191717522Y-53812783I-499992J2D01*
G01*
X191863969Y-54166336D02*
G75*
G03*
X191717522Y-53812783I-499992J2D01*
G01*
X187840862Y-58732335D02*
G75*
G03*
X188547968Y-58439442I3J999993D01*
G01*
X187840862Y-58732335D02*
G75*
G03*
X188547968Y-58439442I3J999993D01*
G01*
X188547969Y-50643229D02*
G75*
G03*
X187840862Y-50350336I-707104J-707101D01*
G01*
X188547969Y-50643229D02*
G75*
G03*
X187840862Y-50350336I-707104J-707101D01*
G01*
X172305964Y-57732336D02*
G75*
G03*
X173305969Y-58732336I1000036J36D01*
G01*
X172305964Y-57732336D02*
G75*
G03*
X173305969Y-58732336I1000036J36D01*
G01*
X173305969Y-50350339D02*
G75*
G03*
X172305969Y-51350336I-9J-999991D01*
G01*
X173305969Y-50350339D02*
G75*
G03*
X172305969Y-51350336I-9J-999991D01*
G01*
D17*
X130040000Y-101120000D02*
X123100000Y-101120000D01*
X123100000Y-101120000D02*
X123100000Y-117320000D01*
X128570000Y-107620000D02*
X128570000Y-110820000D01*
X126570000Y-108470000D02*
X126570000Y-109970000D01*
X124570000Y-110820000D02*
X124570000Y-107620000D01*
X130040000Y-117320000D02*
X130040000Y-101120000D01*
X123100000Y-117320000D02*
X130040000Y-117320000D01*
X134560000Y-111870000D02*
X170240000Y-111870000D01*
X170240000Y-111870000D02*
X170240000Y-106570000D01*
X134560000Y-110220000D02*
X134560000Y-111870000D01*
X134560000Y-106570000D02*
X134560000Y-108220000D01*
X170240000Y-106570000D02*
X134560000Y-106570000D01*
X134560000Y-110220000D02*
G75*
G03*
X134560000Y-108220000I0J1000000D01*
G01*
D11*
X111748766Y-103523498D02*
X112648766Y-103523498D01*
X113748766Y-103523498D02*
X115748766Y-103523498D01*
X114423765Y-102773499D02*
G75*
G03*
X114498765Y-104198497I-674999J-749999D01*
G01*
X111673766Y-103523498D02*
G75*
G03*
X111673766Y-103523498I-925000J0D01*
G01*
D10*
X113923766Y-103523498D02*
G75*
G03*
X113923766Y-103523498I-175000J0D01*
G01*
D11*
X117673766Y-103523498D02*
G75*
G03*
X117673766Y-103523498I-925000J0D01*
G01*
D17*
X93325000Y-110190000D02*
X92585000Y-110190000D01*
X92585000Y-110190000D02*
X92585000Y-110690000D01*
X102746000Y-110430000D02*
X92825000Y-110430000D01*
X102746000Y-110430000D02*
X102746000Y-120710000D01*
X99786000Y-110430000D02*
X99786000Y-120710000D01*
X94885000Y-110430000D02*
X94885000Y-120710000D01*
X93385000Y-110430000D02*
X93385000Y-120710000D01*
X92825000Y-110430000D02*
X92825000Y-120710000D01*
X96462000Y-116883000D02*
X96416000Y-116836000D01*
X96246000Y-117076000D02*
X96211000Y-117041000D01*
X98760000Y-119180000D02*
X98724000Y-119145000D01*
X98554000Y-119385000D02*
X98508000Y-119338000D01*
X102746000Y-120710000D02*
X92825000Y-120710000D01*
X98168999Y-111495001D02*
G75*
G03*
X96801958Y-111494574I-684000J-1534992D01*
G01*
X99019999Y-113713999D02*
G75*
G03*
X99020426Y-112346958I-1534992J684000D01*
G01*
X95950001Y-112346000D02*
G75*
G03*
X95804748Y-113058805I1535000J-683999D01*
G01*
X95805001Y-113030000D02*
G75*
G03*
X95950245Y-113713318I1679999J0D01*
G01*
X96801000Y-114565000D02*
G75*
G03*
X98168042Y-114565426I684000J1535000D01*
G01*
X99165000Y-118110000D02*
G75*
G03*
X99165000Y-118110000I-1680000J0D01*
G01*
D16*
X191863969Y-138736336D02*
X191863969Y-137986336D01*
X191863969Y-138736336D02*
X191863969Y-137986336D01*
X191717522Y-137632783D02*
X188547969Y-134463229D01*
X191717522Y-137632783D02*
X188547969Y-134463229D01*
X188547969Y-142259443D02*
X191717522Y-139089889D01*
X188547969Y-142259443D02*
X191717522Y-139089889D01*
X187840862Y-134170336D02*
X183354969Y-134170336D01*
X187840862Y-134170336D02*
X183354969Y-134170336D01*
X183354969Y-142552336D02*
X187840862Y-142552336D01*
X183354969Y-142552336D02*
X187840862Y-142552336D01*
X183354969Y-142552336D02*
X179798969Y-142552336D01*
X179798969Y-134170336D02*
X183354969Y-134170336D01*
X179798969Y-134170336D02*
X173305969Y-134170336D01*
X179798969Y-134170336D02*
X173305969Y-134170336D01*
X173305969Y-142552336D02*
X179798969Y-142552336D01*
X172305969Y-135170336D02*
X172305969Y-141552336D01*
X172305969Y-135170336D02*
X172305969Y-141552336D01*
X191717522Y-139089889D02*
G75*
G03*
X191863969Y-138736336I-353545J353551D01*
G01*
X191717522Y-139089889D02*
G75*
G03*
X191863969Y-138736336I-353545J353551D01*
G01*
X191863969Y-137986336D02*
G75*
G03*
X191717522Y-137632783I-499992J2D01*
G01*
X191863969Y-137986336D02*
G75*
G03*
X191717522Y-137632783I-499992J2D01*
G01*
X187840862Y-142552335D02*
G75*
G03*
X188547968Y-142259442I3J999993D01*
G01*
X187840862Y-142552335D02*
G75*
G03*
X188547968Y-142259442I3J999993D01*
G01*
X188547969Y-134463229D02*
G75*
G03*
X187840862Y-134170336I-707104J-707101D01*
G01*
X188547969Y-134463229D02*
G75*
G03*
X187840862Y-134170336I-707104J-707101D01*
G01*
X172305964Y-141552336D02*
G75*
G03*
X173305969Y-142552336I1000036J36D01*
G01*
X172305964Y-141552336D02*
G75*
G03*
X173305969Y-142552336I1000036J36D01*
G01*
X173305969Y-134170339D02*
G75*
G03*
X172305969Y-135170336I-9J-999991D01*
G01*
X173305969Y-134170339D02*
G75*
G03*
X172305969Y-135170336I-9J-999991D01*
G01*
D17*
X194580000Y-73230000D02*
X196580000Y-73230000D01*
X199390000Y-73550000D02*
X153670000Y-73550000D01*
X202040000Y-93980000D02*
X202040000Y-76200000D01*
X151020000Y-93980000D02*
X151020000Y-76200000D01*
X199390000Y-96630000D02*
X153670000Y-96630000D01*
X202040000Y-76200000D02*
G75*
G03*
X199390000Y-73550000I-2650000J0D01*
G01*
X153670000Y-73550000D02*
G75*
G03*
X151020000Y-76200000I0J-2650000D01*
G01*
X199390000Y-96630000D02*
G75*
G03*
X202040000Y-93980000I0J2650000D01*
G01*
X151020000Y-93980000D02*
G75*
G03*
X153670000Y-96630000I2650000J0D01*
G01*
X180240000Y-115030000D02*
X180240000Y-108490000D01*
X180570000Y-115030000D02*
X180240000Y-115030000D01*
X182650000Y-115030000D02*
X182980000Y-115030000D01*
X182980000Y-115030000D02*
X182980000Y-108490000D01*
X180240000Y-108490000D02*
X180570000Y-108490000D01*
X182980000Y-108490000D02*
X182650000Y-108490000D01*
D16*
X123283969Y-54916336D02*
X123283969Y-54166336D01*
X123283969Y-54916336D02*
X123283969Y-54166336D01*
X123137522Y-53812783D02*
X119967969Y-50643229D01*
X123137522Y-53812783D02*
X119967969Y-50643229D01*
X119967969Y-58439443D02*
X123137522Y-55269889D01*
X119967969Y-58439443D02*
X123137522Y-55269889D01*
X119260862Y-50350336D02*
X114774969Y-50350336D01*
X119260862Y-50350336D02*
X114774969Y-50350336D01*
X114774969Y-58732336D02*
X119260862Y-58732336D01*
X114774969Y-58732336D02*
X119260862Y-58732336D01*
X114774969Y-58732336D02*
X111218969Y-58732336D01*
X111218969Y-50350336D02*
X114774969Y-50350336D01*
X111218969Y-50350336D02*
X104725969Y-50350336D01*
X111218969Y-50350336D02*
X104725969Y-50350336D01*
X104725969Y-58732336D02*
X111218969Y-58732336D01*
X103725969Y-51350336D02*
X103725969Y-57732336D01*
X103725969Y-51350336D02*
X103725969Y-57732336D01*
X123137522Y-55269889D02*
G75*
G03*
X123283969Y-54916336I-353545J353551D01*
G01*
X123137522Y-55269889D02*
G75*
G03*
X123283969Y-54916336I-353545J353551D01*
G01*
X123283969Y-54166336D02*
G75*
G03*
X123137522Y-53812783I-499992J2D01*
G01*
X123283969Y-54166336D02*
G75*
G03*
X123137522Y-53812783I-499992J2D01*
G01*
X119260862Y-58732335D02*
G75*
G03*
X119967968Y-58439442I3J999993D01*
G01*
X119260862Y-58732335D02*
G75*
G03*
X119967968Y-58439442I3J999993D01*
G01*
X119967969Y-50643229D02*
G75*
G03*
X119260862Y-50350336I-707104J-707101D01*
G01*
X119967969Y-50643229D02*
G75*
G03*
X119260862Y-50350336I-707104J-707101D01*
G01*
X103725964Y-57732336D02*
G75*
G03*
X104725969Y-58732336I1000036J36D01*
G01*
X103725964Y-57732336D02*
G75*
G03*
X104725969Y-58732336I1000036J36D01*
G01*
X104725969Y-50350339D02*
G75*
G03*
X103725969Y-51350336I-9J-999991D01*
G01*
X104725969Y-50350339D02*
G75*
G03*
X103725969Y-51350336I-9J-999991D01*
G01*
D17*
X202040000Y-97722500D02*
X200657000Y-97722500D01*
X202040000Y-97722500D02*
X202040000Y-99106500D01*
X201800000Y-97962500D02*
X189340000Y-97962500D01*
X201800000Y-97962500D02*
X201800000Y-107862500D01*
X189340000Y-97962500D02*
X189340000Y-107862500D01*
X200015000Y-100882500D02*
X198745000Y-100882500D01*
X199895000Y-100882500D02*
X199895000Y-102235833D01*
X199775000Y-100882500D02*
X199775000Y-102235833D01*
X199655000Y-100882500D02*
X199655000Y-102235833D01*
X199535000Y-100882500D02*
X199535000Y-102235833D01*
X199415000Y-100882500D02*
X199415000Y-102235833D01*
X199295000Y-100882500D02*
X199295000Y-102235833D01*
X199175000Y-100882500D02*
X199175000Y-102235833D01*
X199055000Y-100882500D02*
X199055000Y-102235833D01*
X198935000Y-100882500D02*
X198935000Y-102235833D01*
X198815000Y-100882500D02*
X198815000Y-102235833D01*
X198745000Y-100882500D02*
X198745000Y-104942500D01*
X197475000Y-100882500D02*
X196205000Y-100882500D01*
X197355000Y-100882500D02*
X197355000Y-102235833D01*
X197235000Y-100882500D02*
X197235000Y-102235833D01*
X197115000Y-100882500D02*
X197115000Y-102235833D01*
X196995000Y-100882500D02*
X196995000Y-102235833D01*
X196875000Y-100882500D02*
X196875000Y-102235833D01*
X196755000Y-100882500D02*
X196755000Y-102235833D01*
X196635000Y-100882500D02*
X196635000Y-102235833D01*
X196515000Y-100882500D02*
X196515000Y-102235833D01*
X196395000Y-100882500D02*
X196395000Y-102235833D01*
X196275000Y-100882500D02*
X196275000Y-102235833D01*
X196205000Y-100882500D02*
X196205000Y-104942500D01*
X194935000Y-100882500D02*
X193665000Y-100882500D01*
X194815000Y-100882500D02*
X194815000Y-102235833D01*
X194695000Y-100882500D02*
X194695000Y-102235833D01*
X194575000Y-100882500D02*
X194575000Y-102235833D01*
X194455000Y-100882500D02*
X194455000Y-102235833D01*
X194335000Y-100882500D02*
X194335000Y-102235833D01*
X194215000Y-100882500D02*
X194215000Y-102235833D01*
X194095000Y-100882500D02*
X194095000Y-102235833D01*
X193975000Y-100882500D02*
X193975000Y-102235833D01*
X193855000Y-100882500D02*
X193855000Y-102235833D01*
X193735000Y-100882500D02*
X193735000Y-102235833D01*
X193665000Y-100882500D02*
X193665000Y-104942500D01*
X192395000Y-100882500D02*
X191125000Y-100882500D01*
X192275000Y-100882500D02*
X192275000Y-102235833D01*
X192155000Y-100882500D02*
X192155000Y-102235833D01*
X192035000Y-100882500D02*
X192035000Y-102235833D01*
X191915000Y-100882500D02*
X191915000Y-102235833D01*
X191795000Y-100882500D02*
X191795000Y-102235833D01*
X191675000Y-100882500D02*
X191675000Y-102235833D01*
X191555000Y-100882500D02*
X191555000Y-102235833D01*
X191435000Y-100882500D02*
X191435000Y-102235833D01*
X191315000Y-100882500D02*
X191315000Y-102235833D01*
X191195000Y-100882500D02*
X191195000Y-102235833D01*
X191125000Y-100882500D02*
X191125000Y-104942500D01*
X200015000Y-102235833D02*
X198745000Y-102235833D01*
X197475000Y-102235833D02*
X196205000Y-102235833D01*
X194935000Y-102235833D02*
X193665000Y-102235833D01*
X192395000Y-102235833D02*
X191125000Y-102235833D01*
X200015000Y-104942500D02*
X200015000Y-100882500D01*
X198745000Y-104942500D02*
X200015000Y-104942500D01*
X197475000Y-104942500D02*
X197475000Y-100882500D01*
X196205000Y-104942500D02*
X197475000Y-104942500D01*
X194935000Y-104942500D02*
X194935000Y-100882500D01*
X193665000Y-104942500D02*
X194935000Y-104942500D01*
X192395000Y-104942500D02*
X192395000Y-100882500D01*
X191125000Y-104942500D02*
X192395000Y-104942500D01*
X201800000Y-107862500D02*
X189340000Y-107862500D01*
D16*
X146143969Y-54916336D02*
X146143969Y-54166336D01*
X146143969Y-54916336D02*
X146143969Y-54166336D01*
X145997522Y-53812783D02*
X142827969Y-50643229D01*
X145997522Y-53812783D02*
X142827969Y-50643229D01*
X142827969Y-58439443D02*
X145997522Y-55269889D01*
X142827969Y-58439443D02*
X145997522Y-55269889D01*
X142120862Y-50350336D02*
X137634969Y-50350336D01*
X142120862Y-50350336D02*
X137634969Y-50350336D01*
X137634969Y-58732336D02*
X142120862Y-58732336D01*
X137634969Y-58732336D02*
X142120862Y-58732336D01*
X137634969Y-58732336D02*
X134078969Y-58732336D01*
X134078969Y-50350336D02*
X137634969Y-50350336D01*
X134078969Y-50350336D02*
X127585969Y-50350336D01*
X134078969Y-50350336D02*
X127585969Y-50350336D01*
X127585969Y-58732336D02*
X134078969Y-58732336D01*
X126585969Y-51350336D02*
X126585969Y-57732336D01*
X126585969Y-51350336D02*
X126585969Y-57732336D01*
X145997522Y-55269889D02*
G75*
G03*
X146143969Y-54916336I-353545J353551D01*
G01*
X145997522Y-55269889D02*
G75*
G03*
X146143969Y-54916336I-353545J353551D01*
G01*
X146143969Y-54166336D02*
G75*
G03*
X145997522Y-53812783I-499992J2D01*
G01*
X146143969Y-54166336D02*
G75*
G03*
X145997522Y-53812783I-499992J2D01*
G01*
X142120862Y-58732335D02*
G75*
G03*
X142827968Y-58439442I3J999993D01*
G01*
X142120862Y-58732335D02*
G75*
G03*
X142827968Y-58439442I3J999993D01*
G01*
X142827969Y-50643229D02*
G75*
G03*
X142120862Y-50350336I-707104J-707101D01*
G01*
X142827969Y-50643229D02*
G75*
G03*
X142120862Y-50350336I-707104J-707101D01*
G01*
X126585964Y-57732336D02*
G75*
G03*
X127585969Y-58732336I1000036J36D01*
G01*
X126585964Y-57732336D02*
G75*
G03*
X127585969Y-58732336I1000036J36D01*
G01*
X127585969Y-50350339D02*
G75*
G03*
X126585969Y-51350336I-9J-999991D01*
G01*
X127585969Y-50350339D02*
G75*
G03*
X126585969Y-51350336I-9J-999991D01*
G01*
D17*
X131910000Y-98930000D02*
X131910000Y-101730000D01*
X131910000Y-101730000D02*
X155110000Y-101730000D01*
X134620000Y-98930000D02*
X134620000Y-101730000D01*
X155110000Y-98930000D02*
X131910000Y-98930000D01*
X155110000Y-101730000D02*
X155110000Y-98930000D01*
D16*
X169003969Y-138736336D02*
X169003969Y-137986336D01*
X169003969Y-138736336D02*
X169003969Y-137986336D01*
X168857522Y-137632783D02*
X165687969Y-134463229D01*
X168857522Y-137632783D02*
X165687969Y-134463229D01*
X165687969Y-142259443D02*
X168857522Y-139089889D01*
X165687969Y-142259443D02*
X168857522Y-139089889D01*
X164980862Y-134170336D02*
X160494969Y-134170336D01*
X164980862Y-134170336D02*
X160494969Y-134170336D01*
X160494969Y-142552336D02*
X164980862Y-142552336D01*
X160494969Y-142552336D02*
X164980862Y-142552336D01*
X160494969Y-142552336D02*
X156938969Y-142552336D01*
X156938969Y-134170336D02*
X160494969Y-134170336D01*
X156938969Y-134170336D02*
X150445969Y-134170336D01*
X156938969Y-134170336D02*
X150445969Y-134170336D01*
X150445969Y-142552336D02*
X156938969Y-142552336D01*
X149445969Y-135170336D02*
X149445969Y-141552336D01*
X149445969Y-135170336D02*
X149445969Y-141552336D01*
X168857522Y-139089889D02*
G75*
G03*
X169003969Y-138736336I-353545J353551D01*
G01*
X168857522Y-139089889D02*
G75*
G03*
X169003969Y-138736336I-353545J353551D01*
G01*
X169003969Y-137986336D02*
G75*
G03*
X168857522Y-137632783I-499992J2D01*
G01*
X169003969Y-137986336D02*
G75*
G03*
X168857522Y-137632783I-499992J2D01*
G01*
X164980862Y-142552335D02*
G75*
G03*
X165687968Y-142259442I3J999993D01*
G01*
X164980862Y-142552335D02*
G75*
G03*
X165687968Y-142259442I3J999993D01*
G01*
X165687969Y-134463229D02*
G75*
G03*
X164980862Y-134170336I-707104J-707101D01*
G01*
X165687969Y-134463229D02*
G75*
G03*
X164980862Y-134170336I-707104J-707101D01*
G01*
X149445964Y-141552336D02*
G75*
G03*
X150445969Y-142552336I1000036J36D01*
G01*
X149445964Y-141552336D02*
G75*
G03*
X150445969Y-142552336I1000036J36D01*
G01*
X150445969Y-134170339D02*
G75*
G03*
X149445969Y-135170336I-9J-999991D01*
G01*
X150445969Y-134170339D02*
G75*
G03*
X149445969Y-135170336I-9J-999991D01*
G01*
X169003969Y-54916336D02*
X169003969Y-54166336D01*
X169003969Y-54916336D02*
X169003969Y-54166336D01*
X168857522Y-53812783D02*
X165687969Y-50643229D01*
X168857522Y-53812783D02*
X165687969Y-50643229D01*
X165687969Y-58439443D02*
X168857522Y-55269889D01*
X165687969Y-58439443D02*
X168857522Y-55269889D01*
X164980862Y-50350336D02*
X160494969Y-50350336D01*
X164980862Y-50350336D02*
X160494969Y-50350336D01*
X160494969Y-58732336D02*
X164980862Y-58732336D01*
X160494969Y-58732336D02*
X164980862Y-58732336D01*
X160494969Y-58732336D02*
X156938969Y-58732336D01*
X156938969Y-50350336D02*
X160494969Y-50350336D01*
X156938969Y-50350336D02*
X150445969Y-50350336D01*
X156938969Y-50350336D02*
X150445969Y-50350336D01*
X150445969Y-58732336D02*
X156938969Y-58732336D01*
X149445969Y-51350336D02*
X149445969Y-57732336D01*
X149445969Y-51350336D02*
X149445969Y-57732336D01*
X168857522Y-55269889D02*
G75*
G03*
X169003969Y-54916336I-353545J353551D01*
G01*
X168857522Y-55269889D02*
G75*
G03*
X169003969Y-54916336I-353545J353551D01*
G01*
X169003969Y-54166336D02*
G75*
G03*
X168857522Y-53812783I-499992J2D01*
G01*
X169003969Y-54166336D02*
G75*
G03*
X168857522Y-53812783I-499992J2D01*
G01*
X164980862Y-58732335D02*
G75*
G03*
X165687968Y-58439442I3J999993D01*
G01*
X164980862Y-58732335D02*
G75*
G03*
X165687968Y-58439442I3J999993D01*
G01*
X165687969Y-50643229D02*
G75*
G03*
X164980862Y-50350336I-707104J-707101D01*
G01*
X165687969Y-50643229D02*
G75*
G03*
X164980862Y-50350336I-707104J-707101D01*
G01*
X149445964Y-57732336D02*
G75*
G03*
X150445969Y-58732336I1000036J36D01*
G01*
X149445964Y-57732336D02*
G75*
G03*
X150445969Y-58732336I1000036J36D01*
G01*
X150445969Y-50350339D02*
G75*
G03*
X149445969Y-51350336I-9J-999991D01*
G01*
X150445969Y-50350339D02*
G75*
G03*
X149445969Y-51350336I-9J-999991D01*
G01*
D17*
X118110000Y-119883728D02*
X120560000Y-119883728D01*
X120560000Y-119883728D02*
X120560000Y-117553728D01*
X112380000Y-119553728D02*
X112380000Y-107613728D01*
X120230000Y-119553728D02*
X112380000Y-119553728D01*
X112380000Y-107613728D02*
X120230000Y-107613728D01*
X120230000Y-107613728D02*
X120230000Y-119553728D01*
X201315000Y-120949999D02*
X202055000Y-120949999D01*
X202055000Y-120949999D02*
X202055000Y-120449999D01*
X191894000Y-120709999D02*
X201815000Y-120709999D01*
X191894000Y-120709999D02*
X191894000Y-110429999D01*
X194854000Y-120709999D02*
X194854000Y-110429999D01*
X199755000Y-120709999D02*
X199755000Y-110429999D01*
X201255000Y-120709999D02*
X201255000Y-110429999D01*
X201815000Y-120709999D02*
X201815000Y-110429999D01*
X198178000Y-114256999D02*
X198224000Y-114303999D01*
X198394000Y-114063999D02*
X198429000Y-114098999D01*
X195880000Y-111959999D02*
X195916000Y-111994999D01*
X196086000Y-111754999D02*
X196132000Y-111801999D01*
X191894000Y-110429999D02*
X201815000Y-110429999D01*
X196471001Y-119644998D02*
G75*
G03*
X197838042Y-119645425I684000J1534992D01*
G01*
X195620001Y-117426000D02*
G75*
G03*
X195619574Y-118793041I1534992J-684000D01*
G01*
X198689999Y-118793999D02*
G75*
G03*
X198835252Y-118081194I-1535000J683999D01*
G01*
X198834999Y-118109999D02*
G75*
G03*
X198689755Y-117426681I-1679999J0D01*
G01*
X197839000Y-116574999D02*
G75*
G03*
X196471958Y-116574573I-684000J-1535000D01*
G01*
X198835000Y-113029999D02*
G75*
G03*
X198835000Y-113029999I-1680000J0D01*
G01*
X107980000Y-97970000D02*
X106380000Y-97970000D01*
X107680000Y-98270000D02*
X107680000Y-100370000D01*
X92980000Y-98270000D02*
X107680000Y-98270000D01*
X107980000Y-99670000D02*
X107980000Y-97970000D01*
X107680000Y-105370000D02*
X107680000Y-107470000D01*
X107680000Y-107470000D02*
X105880000Y-107470000D01*
X101480000Y-107470000D02*
X92980000Y-107470000D01*
X92980000Y-107470000D02*
X92980000Y-98270000D01*
X172620000Y-115030000D02*
X172620000Y-108490000D01*
X172950000Y-115030000D02*
X172620000Y-115030000D01*
X175030000Y-115030000D02*
X175360000Y-115030000D01*
X175360000Y-115030000D02*
X175360000Y-108490000D01*
X172620000Y-108490000D02*
X172950000Y-108490000D01*
X175360000Y-108490000D02*
X175030000Y-108490000D01*
X131910000Y-116710000D02*
X131910000Y-119510000D01*
X131910000Y-119510000D02*
X155110000Y-119510000D01*
X134620000Y-116710000D02*
X134620000Y-119510000D01*
X155110000Y-116710000D02*
X131910000Y-116710000D01*
X155110000Y-119510000D02*
X155110000Y-116710000D01*
D16*
X146143969Y-138736336D02*
X146143969Y-137986336D01*
X146143969Y-138736336D02*
X146143969Y-137986336D01*
X145997522Y-137632783D02*
X142827969Y-134463229D01*
X145997522Y-137632783D02*
X142827969Y-134463229D01*
X142827969Y-142259443D02*
X145997522Y-139089889D01*
X142827969Y-142259443D02*
X145997522Y-139089889D01*
X142120862Y-134170336D02*
X137634969Y-134170336D01*
X142120862Y-134170336D02*
X137634969Y-134170336D01*
X137634969Y-142552336D02*
X142120862Y-142552336D01*
X137634969Y-142552336D02*
X142120862Y-142552336D01*
X137634969Y-142552336D02*
X134078969Y-142552336D01*
X134078969Y-134170336D02*
X137634969Y-134170336D01*
X134078969Y-134170336D02*
X127585969Y-134170336D01*
X134078969Y-134170336D02*
X127585969Y-134170336D01*
X127585969Y-142552336D02*
X134078969Y-142552336D01*
X126585969Y-135170336D02*
X126585969Y-141552336D01*
X126585969Y-135170336D02*
X126585969Y-141552336D01*
X145997522Y-139089889D02*
G75*
G03*
X146143969Y-138736336I-353545J353551D01*
G01*
X145997522Y-139089889D02*
G75*
G03*
X146143969Y-138736336I-353545J353551D01*
G01*
X146143969Y-137986336D02*
G75*
G03*
X145997522Y-137632783I-499992J2D01*
G01*
X146143969Y-137986336D02*
G75*
G03*
X145997522Y-137632783I-499992J2D01*
G01*
X142120862Y-142552335D02*
G75*
G03*
X142827968Y-142259442I3J999993D01*
G01*
X142120862Y-142552335D02*
G75*
G03*
X142827968Y-142259442I3J999993D01*
G01*
X142827969Y-134463229D02*
G75*
G03*
X142120862Y-134170336I-707104J-707101D01*
G01*
X142827969Y-134463229D02*
G75*
G03*
X142120862Y-134170336I-707104J-707101D01*
G01*
X126585964Y-141552336D02*
G75*
G03*
X127585969Y-142552336I1000036J36D01*
G01*
X126585964Y-141552336D02*
G75*
G03*
X127585969Y-142552336I1000036J36D01*
G01*
X127585969Y-134170339D02*
G75*
G03*
X126585969Y-135170336I-9J-999991D01*
G01*
X127585969Y-134170339D02*
G75*
G03*
X126585969Y-135170336I-9J-999991D01*
G01*
X123283969Y-138736336D02*
X123283969Y-137986336D01*
X123283969Y-138736336D02*
X123283969Y-137986336D01*
X123137522Y-137632783D02*
X119967969Y-134463229D01*
X123137522Y-137632783D02*
X119967969Y-134463229D01*
X119967969Y-142259443D02*
X123137522Y-139089889D01*
X119967969Y-142259443D02*
X123137522Y-139089889D01*
X119260862Y-134170336D02*
X114774969Y-134170336D01*
X119260862Y-134170336D02*
X114774969Y-134170336D01*
X114774969Y-142552336D02*
X119260862Y-142552336D01*
X114774969Y-142552336D02*
X119260862Y-142552336D01*
X114774969Y-142552336D02*
X111218969Y-142552336D01*
X111218969Y-134170336D02*
X114774969Y-134170336D01*
X111218969Y-134170336D02*
X104725969Y-134170336D01*
X111218969Y-134170336D02*
X104725969Y-134170336D01*
X104725969Y-142552336D02*
X111218969Y-142552336D01*
X103725969Y-135170336D02*
X103725969Y-141552336D01*
X103725969Y-135170336D02*
X103725969Y-141552336D01*
X123137522Y-139089889D02*
G75*
G03*
X123283969Y-138736336I-353545J353551D01*
G01*
X123137522Y-139089889D02*
G75*
G03*
X123283969Y-138736336I-353545J353551D01*
G01*
X123283969Y-137986336D02*
G75*
G03*
X123137522Y-137632783I-499992J2D01*
G01*
X123283969Y-137986336D02*
G75*
G03*
X123137522Y-137632783I-499992J2D01*
G01*
X119260862Y-142552335D02*
G75*
G03*
X119967968Y-142259442I3J999993D01*
G01*
X119260862Y-142552335D02*
G75*
G03*
X119967968Y-142259442I3J999993D01*
G01*
X119967969Y-134463229D02*
G75*
G03*
X119260862Y-134170336I-707104J-707101D01*
G01*
X119967969Y-134463229D02*
G75*
G03*
X119260862Y-134170336I-707104J-707101D01*
G01*
X103725964Y-141552336D02*
G75*
G03*
X104725969Y-142552336I1000036J36D01*
G01*
X103725964Y-141552336D02*
G75*
G03*
X104725969Y-142552336I1000036J36D01*
G01*
X104725969Y-134170339D02*
G75*
G03*
X103725969Y-135170336I-9J-999991D01*
G01*
X104725969Y-134170339D02*
G75*
G03*
X103725969Y-135170336I-9J-999991D01*
G01*
D17*
X141240000Y-73230000D02*
X143240000Y-73230000D01*
X146050000Y-73550000D02*
X100330000Y-73550000D01*
X148700000Y-93980000D02*
X148700000Y-76200000D01*
X97680000Y-93980000D02*
X97680000Y-76200000D01*
X146050000Y-96630000D02*
X100330000Y-96630000D01*
X148700000Y-76200000D02*
G75*
G03*
X146050000Y-73550000I-2650000J0D01*
G01*
X100330000Y-73550000D02*
G75*
G03*
X97680000Y-76200000I0J-2650000D01*
G01*
X146050000Y-96630000D02*
G75*
G03*
X148700000Y-93980000I0J2650000D01*
G01*
X97680000Y-93980000D02*
G75*
G03*
X100330000Y-96630000I2650000J0D01*
G01*
X159411000Y-117190000D02*
X160669000Y-117190000D01*
X159411000Y-119030000D02*
X160669000Y-119030000D01*
X176430000Y-115030000D02*
X176430000Y-108490000D01*
X176760000Y-115030000D02*
X176430000Y-115030000D01*
X178840000Y-115030000D02*
X179170000Y-115030000D01*
X179170000Y-115030000D02*
X179170000Y-108490000D01*
X176430000Y-108490000D02*
X176760000Y-108490000D01*
X179170000Y-108490000D02*
X178840000Y-108490000D01*
%LPC*%
D18*
X190598400Y-54610000D03*
D19*
X186588400Y-54610000D03*
X181559200Y-54610000D03*
X176530000Y-54610000D03*
D20*
X128270000Y-104260000D03*
X124870000Y-104260000D03*
X128270000Y-114180000D03*
X124870000Y-114180000D03*
D21*
X96520000Y-139700000D03*
D22*
X135890000Y-113030000D03*
D23*
X138430000Y-113030000D03*
X140970000Y-113030000D03*
X143510000Y-113030000D03*
X146050000Y-113030000D03*
X148590000Y-113030000D03*
X151130000Y-113030000D03*
X153670000Y-113030000D03*
X156210000Y-113030000D03*
X158750000Y-113030000D03*
X161290000Y-113030000D03*
X163830000Y-113030000D03*
X166370000Y-113030000D03*
X168910000Y-113030000D03*
X168910000Y-105410000D03*
X166370000Y-105410000D03*
X163830000Y-105410000D03*
X161290000Y-105410000D03*
X158750000Y-105410000D03*
X156210000Y-105410000D03*
X153670000Y-105410000D03*
X151130000Y-105410000D03*
X148590000Y-105410000D03*
X146050000Y-105410000D03*
X143510000Y-105410000D03*
X140970000Y-105410000D03*
X138430000Y-105410000D03*
X135890000Y-105410000D03*
D24*
X97485000Y-113030000D03*
D25*
X97485000Y-118110000D03*
D18*
X190598400Y-138430000D03*
D19*
X186588400Y-138430000D03*
X181559200Y-138430000D03*
X176530000Y-138430000D03*
D21*
X198120000Y-53340000D03*
D22*
X195580000Y-74930000D03*
D26*
X193040000Y-74930000D03*
X190500000Y-74930000D03*
X187960000Y-74930000D03*
X185420000Y-74930000D03*
X182880000Y-74930000D03*
X180340000Y-74930000D03*
X177800000Y-74930000D03*
X175260000Y-74930000D03*
X172720000Y-74930000D03*
X170180000Y-74930000D03*
X167640000Y-74930000D03*
X165100000Y-74930000D03*
X162560000Y-74930000D03*
X160020000Y-74930000D03*
X157480000Y-74930000D03*
X157480000Y-95250000D03*
X160020000Y-95250000D03*
X162560000Y-95250000D03*
X165100000Y-95250000D03*
X167640000Y-95250000D03*
X170180000Y-95250000D03*
X172720000Y-95250000D03*
X175260000Y-95250000D03*
X177800000Y-95250000D03*
X180340000Y-95250000D03*
X182880000Y-95250000D03*
X185420000Y-95250000D03*
X181610000Y-115570000D03*
D23*
X181610000Y-107950000D03*
D18*
X122018400Y-54610000D03*
D19*
X118008400Y-54610000D03*
X112979200Y-54610000D03*
X107950000Y-54610000D03*
D22*
X199380000Y-99102500D03*
D23*
X196840000Y-99102500D03*
X194300000Y-99102500D03*
X191760000Y-99102500D03*
X191760000Y-106722500D03*
X194300000Y-106722500D03*
X196840000Y-106722500D03*
X199380000Y-106722500D03*
D18*
X144878400Y-54610000D03*
D19*
X140868400Y-54610000D03*
X135839200Y-54610000D03*
X130810000Y-54610000D03*
D22*
X133350000Y-100330000D03*
D23*
X135890000Y-100330000D03*
X138430000Y-100330000D03*
X140970000Y-100330000D03*
X143510000Y-100330000D03*
X146050000Y-100330000D03*
X148590000Y-100330000D03*
X151130000Y-100330000D03*
X153670000Y-100330000D03*
D18*
X167738400Y-138430000D03*
D19*
X163728400Y-138430000D03*
X158699200Y-138430000D03*
X153670000Y-138430000D03*
D21*
X96520000Y-53340000D03*
D18*
X167738400Y-54610000D03*
D19*
X163728400Y-54610000D03*
X158699200Y-54610000D03*
X153670000Y-54610000D03*
D27*
X118110000Y-116133728D03*
D28*
X118110000Y-113593728D03*
X118110000Y-111053728D03*
D21*
X198120000Y-139700000D03*
D24*
X197155000Y-118109999D03*
D25*
X197155000Y-113029999D03*
D29*
X106680000Y-102870000D03*
D30*
X100880000Y-102870000D03*
D31*
X103680000Y-107670000D03*
D26*
X173990000Y-115570000D03*
D23*
X173990000Y-107950000D03*
D22*
X133350000Y-118110000D03*
D23*
X135890000Y-118110000D03*
X138430000Y-118110000D03*
X140970000Y-118110000D03*
X143510000Y-118110000D03*
X146050000Y-118110000D03*
X148590000Y-118110000D03*
X151130000Y-118110000D03*
X153670000Y-118110000D03*
D18*
X144878400Y-138430000D03*
D19*
X140868400Y-138430000D03*
X135839200Y-138430000D03*
X130810000Y-138430000D03*
D18*
X122018400Y-138430000D03*
D19*
X118008400Y-138430000D03*
X112979200Y-138430000D03*
X107950000Y-138430000D03*
D22*
X142240000Y-74930000D03*
D26*
X139700000Y-74930000D03*
X137160000Y-74930000D03*
X134620000Y-74930000D03*
X132080000Y-74930000D03*
X129540000Y-74930000D03*
X127000000Y-74930000D03*
X124460000Y-74930000D03*
X121920000Y-74930000D03*
X119380000Y-74930000D03*
X116840000Y-74930000D03*
X114300000Y-74930000D03*
X111760000Y-74930000D03*
X109220000Y-74930000D03*
X106680000Y-74930000D03*
X104140000Y-74930000D03*
X104140000Y-95250000D03*
X106680000Y-95250000D03*
X109220000Y-95250000D03*
X111760000Y-95250000D03*
X114300000Y-95250000D03*
X116840000Y-95250000D03*
X119380000Y-95250000D03*
X121920000Y-95250000D03*
X124460000Y-95250000D03*
X127000000Y-95250000D03*
X129540000Y-95250000D03*
X132080000Y-95250000D03*
X158790000Y-118110000D03*
X161290000Y-118110000D03*
X177800000Y-115570000D03*
D23*
X177800000Y-107950000D03*
%LPD*%
M02*
