G04 #@! TF.GenerationSoftware,KiCad,Pcbnew,7.0.9*
G04 #@! TF.CreationDate,2023-12-23T22:38:02-05:00*
G04 #@! TF.ProjectId,track_sensor_board,74726163-6b5f-4736-956e-736f725f626f,rev?*
G04 #@! TF.SameCoordinates,Original*
G04 #@! TF.FileFunction,Soldermask,Bot*
G04 #@! TF.FilePolarity,Negative*
%FSLAX46Y46*%
G04 Gerber Fmt 4.6, Leading zero omitted, Abs format (unit mm)*
G04 Created by KiCad (PCBNEW 7.0.9) date 2023-12-23 22:38:02*
%MOMM*%
%LPD*%
G01*
G04 APERTURE LIST*
%ADD10C,2.540000*%
%ADD11C,3.000000*%
%ADD12C,2.780000*%
%ADD13C,4.500000*%
%ADD14R,1.600000X1.600000*%
%ADD15O,1.600000X1.600000*%
%ADD16R,2.600000X2.600000*%
%ADD17C,2.600000*%
%ADD18C,1.600000*%
%ADD19R,2.500000X1.500000*%
%ADD20O,2.500000X1.500000*%
%ADD21R,1.800000X4.400000*%
%ADD22O,1.800000X4.000000*%
%ADD23O,4.000000X1.800000*%
G04 APERTURE END LIST*
D10*
X190598400Y-54610000D03*
D11*
X186588400Y-54610000D03*
X181559200Y-54610000D03*
X176530000Y-54610000D03*
D12*
X128270000Y-104260000D03*
X124870000Y-104260000D03*
X128270000Y-114180000D03*
X124870000Y-114180000D03*
D13*
X96520000Y-139700000D03*
D14*
X135890000Y-113030000D03*
D15*
X138430000Y-113030000D03*
X140970000Y-113030000D03*
X143510000Y-113030000D03*
X146050000Y-113030000D03*
X148590000Y-113030000D03*
X151130000Y-113030000D03*
X153670000Y-113030000D03*
X156210000Y-113030000D03*
X158750000Y-113030000D03*
X161290000Y-113030000D03*
X163830000Y-113030000D03*
X166370000Y-113030000D03*
X168910000Y-113030000D03*
X168910000Y-105410000D03*
X166370000Y-105410000D03*
X163830000Y-105410000D03*
X161290000Y-105410000D03*
X158750000Y-105410000D03*
X156210000Y-105410000D03*
X153670000Y-105410000D03*
X151130000Y-105410000D03*
X148590000Y-105410000D03*
X146050000Y-105410000D03*
X143510000Y-105410000D03*
X140970000Y-105410000D03*
X138430000Y-105410000D03*
X135890000Y-105410000D03*
D16*
X97485000Y-113030000D03*
D17*
X97485000Y-118110000D03*
D10*
X190598400Y-138430000D03*
D11*
X186588400Y-138430000D03*
X181559200Y-138430000D03*
X176530000Y-138430000D03*
D13*
X198120000Y-53340000D03*
D14*
X195580000Y-74930000D03*
D18*
X193040000Y-74930000D03*
X190500000Y-74930000D03*
X187960000Y-74930000D03*
X185420000Y-74930000D03*
X182880000Y-74930000D03*
X180340000Y-74930000D03*
X177800000Y-74930000D03*
X175260000Y-74930000D03*
X172720000Y-74930000D03*
X170180000Y-74930000D03*
X167640000Y-74930000D03*
X165100000Y-74930000D03*
X162560000Y-74930000D03*
X160020000Y-74930000D03*
X157480000Y-74930000D03*
X157480000Y-95250000D03*
X160020000Y-95250000D03*
X162560000Y-95250000D03*
X165100000Y-95250000D03*
X167640000Y-95250000D03*
X170180000Y-95250000D03*
X172720000Y-95250000D03*
X175260000Y-95250000D03*
X177800000Y-95250000D03*
X180340000Y-95250000D03*
X182880000Y-95250000D03*
X185420000Y-95250000D03*
X181610000Y-115570000D03*
D15*
X181610000Y-107950000D03*
D10*
X122018400Y-54610000D03*
D11*
X118008400Y-54610000D03*
X112979200Y-54610000D03*
X107950000Y-54610000D03*
D14*
X199380000Y-99102500D03*
D15*
X196840000Y-99102500D03*
X194300000Y-99102500D03*
X191760000Y-99102500D03*
X191760000Y-106722500D03*
X194300000Y-106722500D03*
X196840000Y-106722500D03*
X199380000Y-106722500D03*
D10*
X144878400Y-54610000D03*
D11*
X140868400Y-54610000D03*
X135839200Y-54610000D03*
X130810000Y-54610000D03*
D14*
X133350000Y-100330000D03*
D15*
X135890000Y-100330000D03*
X138430000Y-100330000D03*
X140970000Y-100330000D03*
X143510000Y-100330000D03*
X146050000Y-100330000D03*
X148590000Y-100330000D03*
X151130000Y-100330000D03*
X153670000Y-100330000D03*
D10*
X167738400Y-138430000D03*
D11*
X163728400Y-138430000D03*
X158699200Y-138430000D03*
X153670000Y-138430000D03*
D13*
X96520000Y-53340000D03*
D10*
X167738400Y-54610000D03*
D11*
X163728400Y-54610000D03*
X158699200Y-54610000D03*
X153670000Y-54610000D03*
D19*
X118110000Y-116133728D03*
D20*
X118110000Y-113593728D03*
X118110000Y-111053728D03*
D13*
X198120000Y-139700000D03*
D16*
X197155000Y-118109999D03*
D17*
X197155000Y-113029999D03*
D21*
X106680000Y-102870000D03*
D22*
X100880000Y-102870000D03*
D23*
X103680000Y-107670000D03*
D18*
X173990000Y-115570000D03*
D15*
X173990000Y-107950000D03*
D14*
X133350000Y-118110000D03*
D15*
X135890000Y-118110000D03*
X138430000Y-118110000D03*
X140970000Y-118110000D03*
X143510000Y-118110000D03*
X146050000Y-118110000D03*
X148590000Y-118110000D03*
X151130000Y-118110000D03*
X153670000Y-118110000D03*
D10*
X144878400Y-138430000D03*
D11*
X140868400Y-138430000D03*
X135839200Y-138430000D03*
X130810000Y-138430000D03*
D10*
X122018400Y-138430000D03*
D11*
X118008400Y-138430000D03*
X112979200Y-138430000D03*
X107950000Y-138430000D03*
D14*
X142240000Y-74930000D03*
D18*
X139700000Y-74930000D03*
X137160000Y-74930000D03*
X134620000Y-74930000D03*
X132080000Y-74930000D03*
X129540000Y-74930000D03*
X127000000Y-74930000D03*
X124460000Y-74930000D03*
X121920000Y-74930000D03*
X119380000Y-74930000D03*
X116840000Y-74930000D03*
X114300000Y-74930000D03*
X111760000Y-74930000D03*
X109220000Y-74930000D03*
X106680000Y-74930000D03*
X104140000Y-74930000D03*
X104140000Y-95250000D03*
X106680000Y-95250000D03*
X109220000Y-95250000D03*
X111760000Y-95250000D03*
X114300000Y-95250000D03*
X116840000Y-95250000D03*
X119380000Y-95250000D03*
X121920000Y-95250000D03*
X124460000Y-95250000D03*
X127000000Y-95250000D03*
X129540000Y-95250000D03*
X132080000Y-95250000D03*
X158790000Y-118110000D03*
X161290000Y-118110000D03*
X177800000Y-115570000D03*
D15*
X177800000Y-107950000D03*
M02*
