M48
; DRILL file {KiCad 7.0.5-0} date 2023 November 04, Saturday 22:15:29
; FORMAT={-:-/ absolute / metric / decimal}
; #@! TF.CreationDate,2023-11-04T22:15:29-04:00
; #@! TF.GenerationSoftware,Kicad,Pcbnew,7.0.5-0
; #@! TF.FileFunction,Plated,1,2,PTH
FMAT,2
METRIC
; #@! TA.AperFunction,Plated,PTH,ViaDrill
T1C0.400
; #@! TA.AperFunction,Plated,PTH,ViaDrill
T2C0.800
; #@! TA.AperFunction,Plated,PTH,ComponentDrill
T3C0.800
; #@! TA.AperFunction,Plated,PTH,ComponentDrill
T4C1.000
; #@! TA.AperFunction,Plated,PTH,ComponentDrill
T5C1.300
; #@! TA.AperFunction,Plated,PTH,ComponentDrill
T6C1.524
%
G90
G05
T1
X95.397Y-102.222
X96.146Y-108.433
X96.52Y-78.74
X96.52Y-88.9
X96.52Y-93.98
X99.956Y-117.877
X100.33Y-59.69
X101.6Y-135.255
X103.927Y-102.447
X105.486Y-88.885
X106.68Y-119.38
X111.76Y-119.38
X112.395Y-109.22
X115.387Y-52.155
X116.84Y-88.9
X116.84Y-99.06
X116.84Y-119.38
X117.895Y-135.791
X121.92Y-105.41
X121.92Y-119.38
X124.628Y-58.42
X124.991Y-135.328
X127.0Y-88.9
X127.0Y-99.06
X127.233Y-77.388
X128.474Y-113.537
X133.35Y-106.68
X133.35Y-109.22
X136.525Y-93.345
X137.16Y-88.9
X138.37Y-52.455
X139.065Y-120.65
X141.605Y-79.375
X141.605Y-80.645
X141.605Y-81.915
X141.605Y-90.17
X141.605Y-135.89
X143.427Y-109.838
X147.499Y-62.116
X147.637Y-131.445
X149.225Y-90.17
X149.772Y-72.978
X150.198Y-120.492
X151.765Y-79.375
X151.765Y-80.645
X151.765Y-81.915
X151.765Y-93.345
X152.4Y-88.9
X154.523Y-103.505
X158.429Y-57.069
X158.873Y-109.2
X160.655Y-92.71
X162.56Y-88.9
X164.047Y-57.529
X165.004Y-136.094
X167.64Y-119.38
X170.626Y-69.093
X171.17Y-58.822
X171.182Y-107.009
X171.45Y-80.645
X172.72Y-88.9
X174.945Y-56.959
X184.15Y-73.025
X186.093Y-114.841
X186.652Y-57.472
X187.254Y-135.495
X187.96Y-93.345
X193.04Y-109.22
X193.675Y-82.55
X198.12Y-124.46
X198.12Y-129.54
X201.295Y-95.885
T2
X148.885Y-77.013
T3
X101.6Y-74.93
X101.6Y-95.25
X104.14Y-74.93
X104.14Y-95.25
X106.68Y-74.93
X106.68Y-95.25
X109.22Y-74.93
X109.22Y-95.25
X111.76Y-74.93
X111.76Y-95.25
X114.3Y-74.93
X114.3Y-95.25
X116.84Y-74.93
X116.84Y-95.25
X119.38Y-74.93
X119.38Y-95.25
X121.92Y-74.93
X121.92Y-95.25
X124.46Y-74.93
X124.46Y-95.25
X127.0Y-74.93
X127.0Y-95.25
X129.54Y-74.93
X129.54Y-95.25
X132.08Y-74.93
X133.35Y-100.33
X133.35Y-118.11
X134.62Y-74.93
X135.89Y-100.33
X135.89Y-105.41
X135.89Y-113.03
X135.89Y-118.11
X137.16Y-74.93
X138.43Y-100.33
X138.43Y-105.41
X138.43Y-113.03
X138.43Y-118.11
X139.7Y-74.93
X140.97Y-100.33
X140.97Y-105.41
X140.97Y-113.03
X140.97Y-118.11
X143.51Y-100.33
X143.51Y-105.41
X143.51Y-113.03
X143.51Y-118.11
X146.05Y-100.33
X146.05Y-105.41
X146.05Y-113.03
X146.05Y-118.11
X148.59Y-100.33
X148.59Y-105.41
X148.59Y-113.03
X148.59Y-118.11
X151.13Y-100.33
X151.13Y-105.41
X151.13Y-113.03
X151.13Y-118.11
X153.67Y-100.33
X153.67Y-105.41
X153.67Y-113.03
X153.67Y-118.11
X154.94Y-74.93
X154.94Y-95.25
X156.21Y-105.41
X156.21Y-113.03
X157.48Y-74.93
X157.48Y-95.25
X158.75Y-105.41
X158.75Y-113.03
X158.79Y-118.11
X160.02Y-74.93
X160.02Y-95.25
X161.29Y-105.41
X161.29Y-113.03
X161.29Y-118.11
X162.56Y-74.93
X162.56Y-95.25
X163.83Y-105.41
X163.83Y-113.03
X165.1Y-74.93
X165.1Y-95.25
X166.37Y-105.41
X166.37Y-113.03
X167.64Y-74.93
X167.64Y-95.25
X168.91Y-105.41
X168.91Y-113.03
X170.18Y-74.93
X170.18Y-95.25
X172.72Y-74.93
X172.72Y-95.25
X173.99Y-107.95
X173.99Y-115.57
X175.26Y-74.93
X175.26Y-95.25
X177.8Y-74.93
X177.8Y-95.25
X177.8Y-107.95
X177.8Y-115.57
X180.34Y-74.93
X180.34Y-95.25
X181.61Y-107.95
X181.61Y-115.57
X182.88Y-74.93
X182.88Y-95.25
X185.42Y-74.93
X187.96Y-74.93
X190.5Y-74.93
X191.76Y-99.102
X191.76Y-106.722
X193.04Y-74.93
X194.3Y-99.102
X194.3Y-106.722
X196.84Y-99.102
X196.84Y-106.722
X199.38Y-99.102
X199.38Y-106.722
T4
X118.218Y-115.983
X120.757Y-115.983
X123.297Y-115.983
T5
X97.485Y-113.03
X97.485Y-118.11
X197.155Y-113.03
X197.155Y-118.11
T6
X107.95Y-54.61
X107.95Y-138.43
X112.979Y-54.61
X112.979Y-138.43
X118.008Y-54.61
X118.008Y-138.43
X130.81Y-54.61
X130.81Y-138.43
X135.839Y-54.61
X135.839Y-138.43
X140.868Y-54.61
X140.868Y-138.43
X153.67Y-54.61
X153.67Y-138.43
X158.699Y-54.61
X158.699Y-138.43
X163.728Y-54.61
X163.728Y-138.43
X176.53Y-54.61
X176.53Y-138.43
X181.559Y-54.61
X181.559Y-138.43
X186.588Y-54.61
X186.588Y-138.43
T3
X100.88Y-101.77G85X100.88Y-103.97
G05
X102.58Y-107.67G85X104.78Y-107.67
G05
X106.68Y-101.57G85X106.68Y-104.17
G05
T0
M30
